
<svg xmlns="http://www.w3.org/2000/svg">
  <defs>
<!-- Menu -->
  <!-- Bar Menu -->
<symbol id="bar-menu">
<path d="M8 14.6667V12H32V14.6667H8ZM8 21.3333H32V18.6667H8V21.3333ZM8 28H32V25.3333H8V28Z"/>
 </symbol>

<!-- Bar Menu X Close -->
<symbol id="bar-menux">
<path d="M29.6667 12.88L27.7867 11L20.3333 18.4533L12.88 11L11 12.88L18.4533 20.3333L11 27.7867L12.88 29.6667L20.3333 22.2133L27.7867 29.6667L29.6667 27.7867L22.2133 20.3333L29.6667 12.88Z"/>
 </symbol>

  <!-- Contact Icons -->
  <!-- Envelope -->
  <symbol id="envelope">
  <path  d="M14.5 0h-13C.673 0 0 .6729 0 1.5v9c0 .8271.6729 1.5 1.5 1.5h13c.8271 0 1.5-.6729 1.5-1.5v-9C16 .673 15.3271 0 14.5 0Zm0 1a.4972.4972 0 0 1 .1916.0387L8 6.8384 1.3083 1.0387A.4978.4978 0 0 1 1.5 1h13Zm0 10h-13a.5003.5003 0 0 1-.5-.5V2.0952L7.6724 7.878A.4995.4995 0 0 0 8 8a.4993.4993 0 0 0 .3276-.122L15 2.0952V10.5c0 .2759-.2241.5-.5.5Z"/>
  </symbol>
<!-- Mobile -->
  <symbol id="mobile">
  <path  d="M8.5 0h-7C.6728 0 0 .6728 0 1.5v13c0 .8272.6728 1.5 1.5 1.5h7c.8271 0 1.5-.6728 1.5-1.5v-13C10 .6728 9.3271 0 8.5 0Zm-7 1h7c.2759 0 .5.2241.5.5V12H1V1.5c0-.2759.2241-.5.5-.5Zm7 14h-7a.5003.5003 0 0 1-.5-.5V13h8v1.5c0 .2759-.2241.5-.5.5Z"/>
  <path  d="M2.3535 13.7389c.1953.1824.1953.478 0 .6603-.1952.1824-.5118.1824-.707 0-.1953-.1823-.1953-.4779 0-.6603.1952-.1823.5118-.1823.707 0Z"/>
  </symbol>
 
<!-- Index Icons -->
<!-- Antenna -->
<symbol id="antenna" viewBox="0 0 66 70">
<path d="M65.3163 48.3385L46.8468 29.7337L48.8966 19.6373C49.4256 19.8438 49.9879 19.9517 50.5556 19.9558H50.5696C53.1777 19.9866 55.3169 17.8974 55.3479 15.2893C55.3788 12.6812 53.2894 10.542 50.6813 10.5111C48.0732 10.4803 45.934 12.5695 45.9031 15.1776C45.8965 15.7357 45.9888 16.2905 46.176 16.8163L35.326 18.1405L17.6276 0.35C17.4105 0.128479 17.1141 0.00247917 16.804 0C16.4977 0.00160417 16.2044 0.123521 15.9873 0.3395L12.6786 3.6295C12.2232 4.08508 12.2232 4.82358 12.6786 5.27917L14.459 7.08517C7.56162 19.7681 9.80191 35.4741 19.9703 45.7228C20.0636 45.8121 20.1718 45.8843 20.29 45.9363C20.2165 46.3311 20.1781 46.7317 20.1756 47.1333V60.6667H6.17562C2.95562 60.6705 0.346077 63.28 0.342285 66.5V68.8333C0.342285 69.4776 0.86466 70 1.50895 70H55.1756C55.8199 70 56.3423 69.4776 56.3423 68.8333V66.5C56.3385 63.28 53.729 60.6705 50.509 60.6667H36.509V54.6688C38.7021 55.1288 40.9367 55.3633 43.1776 55.3688C48.5548 55.363 53.8464 54.0225 58.5776 51.4675L60.3673 53.2677C60.5844 53.4892 60.8808 53.6152 61.191 53.6177C61.4972 53.6161 61.7905 53.4941 62.0076 53.2782L65.3163 49.9882C65.7717 49.5326 65.7717 48.7941 65.3163 48.3385ZM48.9246 13.6348C49.8383 12.726 51.3157 12.7301 52.2244 13.6437C53.1332 14.5574 53.1291 16.0348 52.2155 16.9435C51.7781 17.3785 51.1864 17.6226 50.5695 17.6225H50.5625C49.2739 17.6158 48.2345 16.5658 48.2412 15.2771C48.2445 14.6602 48.4918 14.0699 48.9291 13.6348H48.9246ZM46.1783 21.301L44.8693 27.7445L42.298 25.158L46.1783 21.301ZM44.853 19.3282L40.653 23.5037L37.4038 20.237L44.853 19.3282ZM50.509 63C52.442 63 54.009 64.567 54.009 66.5V67.6667H2.67562V66.5C2.67562 64.567 4.2426 63 6.17562 63H50.509ZM34.1756 58.3333V60.6667H22.509V58.3333H34.1756ZM22.509 56V47.1333C22.509 44.303 25.1258 42 28.3423 42C31.5588 42 34.1756 44.303 34.1756 47.1333V56H22.509ZM36.509 52.29V47.1333C36.509 43.0162 32.8456 39.6667 28.3423 39.6667C25.4306 39.622 22.7079 41.1041 21.165 43.5738C12.2887 34.2249 10.2899 20.2875 16.1805 8.82073L56.872 49.7455C50.5886 52.9419 43.3857 53.8418 36.509 52.29ZM61.2038 50.7943L59.56 49.1412L16.7923 6.11567L15.1415 4.46133L16.7923 2.81633L34.15 20.272C34.1581 20.272 34.1628 20.2872 34.171 20.293L62.8593 49.1493L61.2038 50.7943Z" fill="#212121"/>
<path d="M28.3528 44.3333H28.3423C26.4093 44.3304 24.84 45.895 24.837 47.8281C24.8341 49.7611 26.3988 51.3304 28.3318 51.3333H28.3423C30.2753 51.3362 31.8446 49.7716 31.8475 47.8386C31.8505 45.9055 30.2858 44.3362 28.3528 44.3333ZM29.1695 48.6605C28.9498 48.8789 28.6522 49.0012 28.3423 49C27.698 48.9966 27.1784 48.4716 27.1817 47.8273C27.1834 47.5189 27.307 47.2237 27.5256 47.0062C27.7428 46.7902 28.036 46.6683 28.3423 46.6667C28.9866 46.67 29.5062 47.195 29.5028 47.8393C29.5012 48.1477 29.3776 48.4429 29.159 48.6605H29.1695Z" fill="#2196F3"/>
</symbol>

<!-- Watch -->
<symbol id="watch" viewBox="0 0 70 70">
<g clip-path="url(#clip0_1_1873)">
<path d="M68.4614 33.4715C68.4576 14.9819 53.4656 -0.00373771 34.9754 6.99302e-07C16.4858 0.00373911 1.50017 14.9963 1.50391 33.4859C1.50711 48.0502 10.9252 60.9413 24.7995 65.3713C24.9319 65.413 25.0697 65.4343 25.2081 65.4338C25.4719 65.4333 25.7304 65.3628 25.9573 65.2287C26.2527 65.0541 26.4732 64.7764 26.5768 64.449L35.0315 37.6521C37.3429 37.6404 39.2068 35.7568 39.1945 33.4459C39.1827 31.1345 37.2997 29.2706 34.9883 29.2824C34.3666 29.285 33.753 29.4282 33.1944 29.7011L22.0251 18.5302C21.4707 17.9951 20.5879 18.0106 20.0528 18.5644C19.5305 19.1054 19.5305 19.962 20.0528 20.503L31.2162 31.6792C30.3596 33.4277 30.8493 35.5383 32.3895 36.7303L24.3338 62.2647C8.41354 56.4002 0.261689 38.7405 6.12618 22.8203C11.9907 6.90002 29.6503 -1.25183 45.5706 4.61266C61.4909 10.4771 69.6427 28.1374 63.7782 44.0571C60.913 51.8351 55.0261 58.1252 47.4548 61.4989L46.5842 57.3989C46.4251 56.6454 45.6844 56.1636 44.9308 56.3233C44.6931 56.3741 44.4726 56.4857 44.291 56.6475L35.8978 64.1409C35.322 64.653 35.2708 65.5347 35.7835 66.1105C35.9501 66.2974 36.1637 66.4362 36.403 66.5126L47.1188 69.9327C47.8521 70.1682 48.6377 69.765 48.8732 69.0312C48.948 68.7994 48.9603 68.5527 48.9101 68.3145L48.0545 64.2915C60.4452 59.0678 68.4902 46.918 68.4614 33.4715ZM34.9829 32.0766C35.753 32.0766 36.3779 32.7014 36.3779 33.4715C36.3779 34.2422 35.753 34.8665 34.9829 34.8665C34.2123 34.8665 33.588 34.2422 33.588 33.4715C33.588 32.7014 34.2123 32.0766 34.9829 32.0766ZM39.5774 64.5916L44.3551 60.3298L45.6737 66.543L39.5774 64.5916Z" fill="#212121"/>
<path d="M33.5879 6.96729V9.7572C33.5879 10.5278 34.2122 11.1522 34.9828 11.1522C35.753 11.1522 36.3778 10.5278 36.3778 9.7572V6.96729C36.3778 6.19717 35.753 5.57233 34.9828 5.57233C34.2122 5.57233 33.5879 6.19717 33.5879 6.96729Z" fill="#2196F3"/>
<path d="M8.4787 32.0765C7.70805 32.0765 7.08374 32.7014 7.08374 33.4715C7.08374 34.2421 7.70805 34.8665 8.4787 34.8665H11.2686C12.0393 34.8665 12.6636 34.2421 12.6636 33.4715C12.6636 32.7014 12.0393 32.0765 11.2686 32.0765H8.4787Z" fill="#2196F3"/>
<path d="M61.4865 34.8665C62.2572 34.8665 62.8815 34.2421 62.8815 33.4715C62.8815 32.7014 62.2572 32.0765 61.4865 32.0765H58.6966C57.9265 32.0765 57.3016 32.7014 57.3016 33.4715C57.3016 34.2421 57.9265 34.8665 58.6966 34.8665H61.4865Z" fill="#2196F3"/>
</g>
</symbol>

<!-- Diagram -->
<symbol id="diagram" viewBox="0 0 70 70">
<g clip-path="url(#clip0_75273_456)">
<path d="M32.6496 32.7351H34.9817V43.2296H32.6496V32.7351Z" fill="#2196F3"/>
<path d="M41.978 37.3993H44.3101V43.2296H41.978V37.3993Z" fill="#2196F3"/>
<path d="M23.3211 40.8975H25.6532V43.2296H23.3211V40.8975Z" fill="#2196F3"/>
<path d="M16.3248 39.7314H18.6569V43.2295H16.3248V39.7314Z" fill="#2196F3"/>
<path d="M3.49817 61.8865H59.4689C61.4007 61.8865 62.967 60.3202 62.967 58.3883V53.7241C62.967 51.7923 61.4007 50.2259 59.4689 50.2259H58.3028V21.1469L64.9262 14.8725C66.4635 15.6303 68.3242 15.1702 69.3302 13.7816C70.3369 12.3935 70.1957 10.4821 68.9966 9.25684C67.7975 8.03157 65.8901 7.8488 64.4798 8.82412C63.0701 9.80001 62.569 11.6499 63.2933 13.2037L58.3028 17.9345V15.2443C58.3028 13.3124 56.7365 11.7461 54.8046 11.7461H8.16239C6.23054 11.7461 4.66422 13.3124 4.66422 15.2443V50.2259H3.49817C1.56632 50.2259 0 51.7923 0 53.7241V58.3883C0 60.3202 1.56632 61.8865 3.49817 61.8865ZM66.4652 10.58C67.1091 10.58 67.6312 11.1021 67.6312 11.7461C67.6312 12.39 67.1091 12.9121 66.4652 12.9121C65.8212 12.9121 65.2991 12.39 65.2991 11.7461C65.2991 11.1021 65.8212 10.58 66.4652 10.58ZM6.99634 15.2443C6.99634 14.6003 7.51844 14.0782 8.16239 14.0782H54.8046C55.4486 14.0782 55.9707 14.6003 55.9707 15.2443V20.1414L53.6386 22.3573V17.5764C53.6386 16.9324 53.1165 16.4103 52.4725 16.4103H10.4945C9.85055 16.4103 9.32845 16.9324 9.32845 17.5764V46.7278C9.32845 47.3717 9.85055 47.8938 10.4945 47.8938H52.4725C53.1165 47.8938 53.6386 47.3717 53.6386 46.7278V25.5651L55.9707 23.3554V50.2259H6.99634V15.2443ZM17.4908 30.403C15.9131 30.3984 14.5279 31.4495 14.1083 32.9703C13.6886 34.491 14.3383 36.104 15.6951 36.9091C17.0513 37.7142 18.7793 37.5121 19.9129 36.4149L23.9662 38.4487C24.4371 38.6844 25.0081 38.5739 25.3583 38.1805L33.9745 28.4871L42.4443 34.8338C42.8987 35.1743 43.5329 35.1378 43.9452 34.7478L51.3065 27.7748V45.5617H11.6606V18.7424H51.3065V24.5619L43.0564 32.3747L34.5154 25.9716C34.0303 25.6084 33.3476 25.6767 32.9445 26.1294L24.2099 35.9571L20.9446 34.3242C20.9685 34.1841 20.9833 34.0429 20.989 33.9012C20.989 31.9693 19.4227 30.403 17.4908 30.403ZM18.6569 33.9012C18.6569 34.5451 18.1348 35.0672 17.4908 35.0672C16.8469 35.0672 16.3248 34.5451 16.3248 33.9012C16.3248 33.2572 16.8469 32.7351 17.4908 32.7351C18.1348 32.7351 18.6569 33.2572 18.6569 33.9012ZM25.6532 52.5581H37.3138V53.7241C37.3138 54.3681 36.7917 54.8902 36.1477 54.8902H26.8193C26.1753 54.8902 25.6532 54.3681 25.6532 53.7241V52.5581ZM2.33211 53.7241C2.33211 53.0802 2.85422 52.5581 3.49817 52.5581H23.3211V53.7241C23.3211 55.656 24.8874 57.2223 26.8193 57.2223H36.1477C38.0796 57.2223 39.6459 55.656 39.6459 53.7241V52.5581H59.4689C60.1128 52.5581 60.6349 53.0802 60.6349 53.7241V58.3883C60.6349 59.0323 60.1128 59.5544 59.4689 59.5544H3.49817C2.85422 59.5544 2.33211 59.0323 2.33211 58.3883V53.7241Z" fill="#212121"/>
</g>
</symbol>

<!-- Astronatut -->
<symbol id="astronaut" viewBox=" 0 0 70 70">
<path d="M69.9433 9.89637C69.8056 9.47513 69.4416 9.16724 69.0018 9.10298L64.8228 8.49512L62.9526 4.70809C62.5606 3.91005 61.2527 3.91005 60.8608 4.70809L58.9906 8.49512L54.8114 9.10312C54.3716 9.16724 54.0076 9.47418 53.8687 9.89651C53.7323 10.3188 53.8453 10.7831 54.1639 11.0924L57.1891 14.0407L56.4752 18.2034C56.4005 18.6409 56.5802 19.0831 56.9384 19.3445C57.3012 19.6082 57.7748 19.6407 58.168 19.4331L61.9061 17.4672L65.6442 19.4331C65.8146 19.5229 66.0024 19.5672 66.1879 19.5672C66.4294 19.5672 66.671 19.4925 66.874 19.3443C67.2333 19.0831 67.413 18.6408 67.3372 18.2033L66.6233 14.0405L69.6485 11.0923C69.9654 10.7819 70.0798 10.3187 69.9433 9.89637ZM64.5556 12.7991C64.2815 13.0662 64.1555 13.4536 64.2208 13.8316L64.6385 16.2688L62.4499 15.1184C62.2795 15.0286 62.0929 14.9843 61.9061 14.9843C61.7195 14.9843 61.534 15.0286 61.3624 15.1184L59.1736 16.2688L59.5913 13.8316C59.6567 13.4536 59.5306 13.0675 59.2565 12.7991L57.4843 11.0724L59.932 10.7166C60.3124 10.6617 60.6402 10.4226 60.8106 10.0783L61.9049 7.86169L62.9992 10.0783C63.1696 10.4225 63.4974 10.6617 63.8778 10.7166L66.3255 11.0724L64.5556 12.7991Z" fill="#2196F3"/>
<path d="M57.167 44.8923H54.8336V47.2257H57.167V44.8923Z" fill="#2196F3"/>
<path d="M57.167 49.5591H54.8336V51.8925H57.167V49.5591Z" fill="#2196F3"/>
<path d="M59.5004 47.2257H57.167V49.5591H59.5004V47.2257Z" fill="#2196F3"/>
<path d="M54.8337 47.2257H52.5003V49.5591H54.8337V47.2257Z" fill="#2196F3"/>
<path d="M49.0002 57.7259H46.6668V60.0593H49.0002V57.7259Z" fill="#2196F3"/>
<path d="M49.0002 62.3926H46.6668V64.726H49.0002V62.3926Z" fill="#2196F3"/>
<path d="M51.3337 60.0593H49.0002V62.3927H51.3337V60.0593Z" fill="#2196F3"/>
<path d="M46.6668 60.0593H44.3334V62.3927H46.6668V60.0593Z" fill="#2196F3"/>
<path d="M35 53.0592H32.6666V55.3926H35V53.0592Z" fill="#2196F3"/>
<path d="M35 57.7259H32.6666V60.0593H35V57.7259Z" fill="#2196F3"/>
<path d="M37.3334 55.3925H35V57.7259H37.3334V55.3925Z" fill="#2196F3"/>
<path d="M32.6666 55.3925H30.3332V57.7259H32.6666V55.3925Z" fill="#2196F3"/>
<path d="M12.833 13.3918H10.4996V15.7252H12.833V13.3918Z" fill="#2196F3"/>
<path d="M12.833 18.0587H10.4996V20.3921H12.833V18.0587Z" fill="#2196F3"/>
<path d="M15.1663 15.7252H12.8329V18.0586H15.1663V15.7252Z" fill="#2196F3"/>
<path d="M10.4996 15.7252H8.1662V18.0586H10.4996V15.7252Z" fill="#2196F3"/>
<path d="M54.0635 30.9738C53.4347 30.1256 52.5119 29.5797 51.4642 29.4326C50.4118 29.2833 49.3734 29.5597 48.5334 30.2026L45.7952 32.3014L45.794 32.3026L41.6428 35.4025L38.6724 34.2194C43.9691 31.8429 47.6711 26.545 47.6711 20.3942C47.6711 12.0314 40.8401 5.22736 32.4436 5.22736C24.047 5.22736 17.2161 12.0314 17.2161 20.3942C17.2161 23.4253 18.1226 26.2439 19.6662 28.6158L13.6204 28.5633C13.6168 28.5633 13.6134 28.5633 13.6099 28.5633C13.5911 28.5633 13.5761 28.5726 13.5586 28.5738C13.4431 28.5785 13.3298 28.6018 13.2191 28.6415C13.1911 28.652 13.162 28.6579 13.1352 28.6706C13.1212 28.6765 13.1071 28.6776 13.0932 28.6846L6.02075 32.1764C6.01952 32.1764 6.01843 32.1764 6.01843 32.1775L1.8766 34.1693C1.83107 34.1891 1.78445 34.2159 1.73892 34.2462C0.0880191 35.3452 -0.474314 37.5036 0.429958 39.2676C0.911763 40.2056 1.73195 40.8963 2.73999 41.2124C3.12856 41.3337 3.52518 41.3933 3.91949 41.3933C4.55305 41.3933 5.18074 41.2381 5.75578 40.9313L8.79154 39.3167L13.7441 36.7593L16.7122 36.7418L4.80844 48.5884C4.80735 48.5896 4.80612 48.5896 4.80489 48.5907L1.87647 51.5074C1.18466 52.1958 0.8043 53.1092 0.8043 54.0835C0.8043 55.0565 1.18466 55.9723 1.87647 56.6619C2.587 57.3689 3.52149 57.7235 4.45598 57.7235C5.3917 57.7235 6.32495 57.3689 7.03782 56.6619L9.91251 53.7988L13.7206 50.9556L15.6912 52.9179L11.8375 56.7551C11.8364 56.7564 11.8352 56.7564 11.834 56.7575L8.90556 59.6741C8.21375 60.3625 7.8334 61.2759 7.8334 62.2502C7.8334 63.2233 8.21375 64.139 8.90556 64.8286C9.6161 65.5356 10.5518 65.8903 11.4863 65.8903C12.4208 65.8903 13.3565 65.5356 14.0681 64.8286L16.9977 61.912L21.6842 57.2453C21.6854 57.244 21.6854 57.2429 21.6865 57.2417L23.8951 55.0542L23.8869 55.046C23.9008 55.032 23.9207 55.0272 23.9347 55.0122L35.2353 42.6349L42.8281 43.7152C42.8829 43.7234 42.9377 43.7269 42.9925 43.7269C43.1338 43.7269 43.2702 43.6931 43.402 43.6429C43.4406 43.629 43.4743 43.6102 43.5106 43.5916C43.5526 43.5706 43.5968 43.559 43.6366 43.5322L50.6659 38.8655C50.6916 38.848 50.7055 38.8199 50.73 38.8013C50.758 38.7792 50.793 38.7699 50.8186 38.7453L53.5999 36.1401C55.0471 34.7841 55.2466 32.5628 54.0635 30.9738ZM4.66024 38.8722C4.28111 39.0752 3.85058 39.1159 3.43878 38.9854C3.03039 38.8582 2.69912 38.5793 2.50538 38.2025C2.15305 37.5164 2.35718 36.6811 2.97433 36.2296L5.84793 34.8471L6.53974 36.8689L6.83027 37.7182L4.66024 38.8722ZM12.3102 34.874L8.92333 36.6241L8.36456 34.9907L7.96328 33.8169L12.3967 31.6282L12.3102 34.874ZM45.3402 20.3919C45.3402 22.4009 44.8607 24.2957 44.03 25.9907L34.8832 21.8362C34.7875 20.5821 34.1366 19.4842 33.1589 18.8005L36.3614 8.16849C41.5626 9.82295 45.3402 14.6752 45.3402 20.3919ZM19.5519 20.3919C19.5519 13.3159 25.3363 7.55831 32.446 7.55831C32.9991 7.55831 33.5403 7.60493 34.0759 7.67261L30.9433 18.0713C30.9014 18.0701 30.8617 18.0585 30.8185 18.0585C28.5597 18.0585 26.7222 19.8901 26.7222 22.1419C26.7222 24.3936 28.5597 26.2254 30.8185 26.2254C32.3375 26.2254 33.65 25.3866 34.3582 24.1591L42.8073 27.9975C40.4564 31.1615 36.6938 33.2255 32.4459 33.2255C25.3363 33.2255 19.5519 27.4679 19.5519 20.3919ZM32.5814 22.1419C32.5814 23.1068 31.7903 23.8919 30.8185 23.8919C29.8467 23.8919 29.0556 23.1068 29.0556 22.1419C29.0556 21.1771 29.8467 20.3919 30.8185 20.3919C31.7903 20.3919 32.5814 21.1771 32.5814 22.1419ZM5.39183 55.0074C4.87503 55.5196 4.03843 55.5185 3.52286 55.0087C3.2743 54.7601 3.13785 54.4324 3.13785 54.0835C3.13785 53.7358 3.2743 53.4079 3.52286 53.1618L5.6274 51.0652L7.48941 52.9191L5.39183 55.0074ZM12.4222 63.1743C11.9054 63.6865 11.0677 63.6877 10.552 63.1755C10.3034 62.927 10.1669 62.5993 10.1669 62.2503C10.1669 61.9027 10.3034 61.5748 10.552 61.3287L12.6579 59.231L13.5388 60.1073L14.5211 61.0849L12.4222 63.1743ZM20.0383 55.5862C20.0371 55.5873 20.036 55.5873 20.0348 55.5885L16.1742 59.4385L15.2933 58.5623L14.311 57.5846L18.168 53.7451C18.168 53.7451 18.168 53.7451 18.168 53.744C18.1692 53.7428 18.1703 53.7428 18.1715 53.7417C18.259 53.6542 18.3139 53.5492 18.3676 53.4454C18.3828 53.415 18.4119 53.3893 18.4248 53.3579C18.461 53.2681 18.4667 53.1713 18.4808 53.0767C18.4878 53.0229 18.5112 52.9729 18.5112 52.9179C18.5112 52.8397 18.4831 52.764 18.4669 52.6869C18.4529 52.6169 18.4529 52.5456 18.426 52.4781C18.3817 52.3684 18.3058 52.2716 18.2265 52.177C18.2044 52.1513 18.1962 52.1186 18.1717 52.0942C18.1717 52.0942 18.1717 52.0942 18.1705 52.0942C18.1692 52.0931 18.1692 52.0906 18.1681 52.0895L14.6529 48.5895C14.6156 48.5521 14.5677 48.537 14.5257 48.5055C14.464 48.4577 14.4045 48.4134 14.3356 48.3795C14.2691 48.3468 14.2014 48.327 14.1314 48.3082C14.0568 48.2872 13.9845 48.2709 13.9063 48.265C13.835 48.2604 13.7686 48.2674 13.6975 48.2756C13.6193 48.2849 13.5459 48.2954 13.47 48.3199C13.3964 48.3432 13.3312 48.3793 13.2635 48.4179C13.2203 48.4424 13.1714 48.4506 13.1305 48.4809L9.25133 51.3767L7.28077 49.4143L12.5285 44.1946L22.0674 53.576L20.0383 55.5862ZM34.9544 40.2372C34.9207 40.2325 34.8891 40.2454 34.8553 40.2431C34.7701 40.2384 34.6885 40.2443 34.6034 40.2582C34.5369 40.2699 34.4739 40.2827 34.4108 40.3049C34.3362 40.3306 34.2685 40.3656 34.1996 40.4075C34.1343 40.4472 34.0748 40.4892 34.0176 40.5417C33.9896 40.5661 33.9558 40.5779 33.9301 40.6058L23.6527 51.862L14.185 42.5506L20.3825 36.3859C20.8387 35.9309 20.841 35.1923 20.386 34.735C20.1562 34.5052 19.854 34.392 19.5519 34.3932V34.3921L14.6984 34.4212L14.7591 30.9049L21.5492 30.9633C24.3166 33.7937 28.176 35.5589 32.446 35.5589C33.4027 35.5589 34.3361 35.4598 35.2448 35.2905C35.3323 35.3605 35.4186 35.4317 35.5284 35.476L40.7995 37.5761L41.1331 39.235L41.5228 41.1717L34.9544 40.2372ZM43.7944 40.6269L43.1096 37.2189L46.2736 34.8564L47.102 35.9554L48.3445 37.605L43.7944 40.6269ZM52.0055 34.4341L50.1726 36.1514L48.1356 33.4471L49.9544 32.0529C50.2938 31.7917 50.7221 31.6854 51.1421 31.7403C51.5644 31.7997 51.9378 32.0203 52.1921 32.3621C52.6658 33.0003 52.5853 33.8905 52.0055 34.4341Z" fill="#212121"/>
<path d="M29.7545 40.5651L25.0668 35.8984C24.613 35.4446 23.8755 35.4446 23.4205 35.8984L18.734 40.5651C18.5147 40.7856 18.391 41.0819 18.391 41.3922C18.391 41.7026 18.5135 42.0001 18.734 42.2194L23.4205 46.8861C23.648 47.1124 23.9468 47.2256 24.2443 47.2256C24.5418 47.2256 24.8404 47.1124 25.0668 46.8861L29.7545 42.2194C29.9738 42.0001 30.0987 41.7026 30.0987 41.3922C30.0987 41.0819 29.9749 40.7844 29.7545 40.5651ZM24.2443 44.4128L21.2109 41.3922L24.2443 38.3717L27.2788 41.3922L24.2443 44.4128Z" fill="#212121"/>
<path d="M37.5468 11.0923L36.9833 13.358C37.1385 13.3966 40.7844 14.3462 40.7844 18.0586H43.1178C43.1177 13.6461 39.4742 11.5718 37.5468 11.0923Z" fill="#212121"/>
<path d="M43.1178 20.3919H40.7844V22.7253H43.1178V20.3919Z" fill="#212121"/>
</symbol>

<!-- Regular Clients -->
<!-- Client 1 -->
  <symbol id="client1" viewBox="0 0 106 54">
  <g clip-path="url(#a)">
    <path fill-rule="evenodd" d="m38 7.087 7.0078 6.6341L32 13.7134v32.1873h34V33.594l7 6.6268V7.087H38Zm27.6924 25.7283L45.8226 14.0049h19.8698v18.8104Zm-6.1693 8.3772h-22.143V19.5449h1.5652v20.1818h20.5778v1.4658Zm-16.9142 8.9936-.8179 1.6846-.8179-1.6846h-.686l1.1939 2.2461v1.3086h.6201v-1.3086l1.1914-2.2461h-.6836Zm1.0278 3.5547.2881-.8277h1.377l.2905.8277h.6445l-1.3452-3.5547h-.5542l-1.3428 3.5547h.6421Zm.9766-2.8003.5151 1.4746h-1.0303l.5152-1.4746Zm3.2568 1.3892a.8074.8074 0 0 0-.1343.4516c0 .2995.105.5428.315.73.2116.1855.4931.2783.8447.2783s.6543-.0952.9082-.2856l.2002.2368h.6885l-.5225-.6177c.2051-.2799.3076-.6388.3076-1.0767h-.5151c0 .2393-.0496.4566-.1489.6519l-.6861-.8105.2417-.1758c.1709-.1237.2938-.2474.3687-.3711a.785.785 0 0 0 .1123-.4102c0-.2246-.083-.4126-.249-.5639-.1644-.153-.376-.2295-.6348-.2295-.2865 0-.5143.0813-.6836.2441-.1693.1611-.2539.3809-.2539.6592 0 .1139.0269.2319.0806.354.0553.1221.1522.2702.2905.4443-.2637.1888-.4403.3524-.5298.4908Zm1.604.7861c-.1741.1334-.3613.2002-.5615.2002-.1774 0-.319-.0513-.4248-.1538-.1058-.1026-.1587-.236-.1587-.4004 0-.1904.0977-.3597.293-.5078l.0757-.0537.7763.9155Zm-.6372-1.5747c-.1676-.2067-.2515-.3784-.2515-.5152 0-.1188.0342-.2172.1026-.2954.0683-.0781.1603-.1172.2759-.1172.1074 0 .1961.0334.2661.1001.07.0651.105.1441.105.2369 0 .1399-.0505.2547-.1514.3442l-.0757.061-.271.1856Zm5.7861 1.9311c.2442-.2132.3842-.5094.42-.8886h-.6153c-.0325.2539-.1098.4353-.2319.5444-.1221.109-.3044.1636-.5469.1636-.2653 0-.4671-.1009-.6054-.3028-.1368-.2018-.2051-.4948-.2051-.8789v-.3149c.0032-.3792.0765-.6665.2197-.8618.1449-.197.3516-.2954.6201-.2954.2311 0 .4061.0569.5249.1709.1205.1123.1953.2962.2246.5517h.6153c-.0391-.389-.1783-.6901-.4175-.9033-.2393-.2132-.555-.3198-.9473-.3198-.2913 0-.5485.0691-.7715.2075-.2213.1383-.3914.3353-.5102.5908-.1188.2555-.1782.551-.1782.8862v.3321c.0048.3271.0659.6144.1831.8618.1172.2474.2832.4386.498.5737.2165.1335.4663.2002.7495.2002.4053 0 .73-.1058.9741-.3174Zm3.6304-.498c.1205-.2637.1807-.5697.1807-.918v-.1977c-.0016-.3467-.0635-.6503-.1856-.9107-.122-.262-.2954-.4622-.52-.6006-.223-.1399-.4793-.2099-.769-.2099s-.5469.0708-.7715.2124c-.223.1399-.3963.3426-.52.6079-.1221.2653-.1831.5713-.1831.9179v.2002c.0016.3402.0634.6405.1855.9009.1237.2604.2979.4614.5225.6031.2262.1399.4834.2099.7715.2099.2913 0 .5485-.07.7714-.2099.2246-.1417.3972-.3435.5176-.6055Zm-.6616-2.0093c.1497.21.2246.5119.2246.9058v.1855c0 .4004-.0741.7048-.2222.9131-.1464.2083-.3564.3125-.6298.3125-.2702 0-.4818-.1066-.6348-.3198-.1514-.2132-.2271-.5152-.2271-.9058v-.2051c.0033-.3825.0798-.6779.2295-.8862.1514-.21.3605-.3149.6275-.3149.2734 0 .4842.1049.6323.3149Z" clip-rule="evenodd"/>  
  </g>
</symbol>

<!-- Client 2 -->
<symbol id="client2" viewBox="0 0 106 54">
  <g clip-path="url(#a)">
    <path fill-rule="evenodd" d="M50.1136 6.0215h-.1366c-.2099-.0127-.4199-.0178-.6299-.0229h-.4553c-.3972 0-.802.0102-1.2042.0305a.6282.6282 0 0 0-.091 0A28.2753 28.2753 0 0 0 37.0805 8.712l-.4326.2085v22.1412l1.0119-.3433c.8879-.3052 1.834-.5798 2.813-.8341a34.3343 34.3343 0 0 1 8.0952-1.0757v2.9091a24.4361 24.4361 0 0 0-1.065.0305h-.0835a32.3608 32.3608 0 0 0-6.2282.9562 31.6258 31.6258 0 0 0-7.4197 2.8913V7.1989a29.727 29.727 0 0 1 7.784-3.166 29.7924 29.7924 0 0 1 7.3362-.946h.4275c.511.0128 1.0094.0357 1.4774.0713a21.0904 21.0904 0 0 1 3.6554.5823v2.8633a22.6239 22.6239 0 0 0-3.5416-.534l-.0726-.0062c-.2468-.021-.4939-.0421-.7243-.0421Zm5.0392 2.9269c.6349.0483 1.2927.0712 1.958.0712a31.4667 31.4667 0 0 0 7.7131-.9892 31.7771 31.7771 0 0 0 7.4172-2.8939v27.8907a29.815 29.815 0 0 1-7.7865 3.1659 29.9378 29.9378 0 0 1-7.3362.9434 22.4 22.4 0 0 1-5.5654-.656V8.4093c.43.0991.8727.1907 1.323.267.7387.1246 1.5179.2161 2.2768.272Zm14.1943.2161-1.0119.3408a44.5541 44.5541 0 0 1-2.8131.8417 34.2676 34.2676 0 0 1-8.4063 1.0782c-.6602 0-1.2673-.0178-1.8542-.056l-.807-.0534V34.0927l.6931.061a22.8513 22.8513 0 0 0 1.9732.0839 26.8837 26.8837 0 0 0 6.6203-.857 27.7634 27.7634 0 0 0 5.1733-1.8588l.4326-.2085V9.1645Z" clip-rule="evenodd"/>
    <path d="M35.7371 45.2994a1.4924 1.4924 0 0 0-.5147-.3478 1.4862 1.4862 0 0 0-.611-.1074 1.676 1.676 0 0 0-.6501.1221 1.503 1.503 0 0 0-.506.3331 1.4645 1.4645 0 0 0-.3263.5086 1.65 1.65 0 0 0-.1164.6281v3.794a1.789 1.789 0 0 0 .1493.7782c.0895.1944.2188.3677.3794.5085.1517.1277.3297.2198.5212.2696a2.112 2.112 0 0 0 .5666.0788 1.418 1.418 0 0 0 .6122-.1322 1.601 1.601 0 0 0 .506-.3509 1.6498 1.6498 0 0 0 .3313-.5086 1.5338 1.5338 0 0 0 .1215-.6052v-.4247h-.9917v.3382a.8796.8796 0 0 1-.0582.3382.6066.6066 0 0 1-.1442.2136.6048.6048 0 0 1-.2074.1094.6973.6973 0 0 1-.2074.0356.5041.5041 0 0 1-.4655-.2035.8978.8978 0 0 1-.1315-.5085v-3.5372a1.2073 1.2073 0 0 1 .1214-.5671.5046.5046 0 0 1 .4857-.2289.5268.5268 0 0 1 .4427.2136.806.806 0 0 1 .1644.5086v.3281h.9816v-.3866a1.7906 1.7906 0 0 0-.1215-.6637 1.5626 1.5626 0 0 0-.3314-.534ZM41.6289 45.2561a1.7652 1.7652 0 0 0-1.1282-.417 1.7366 1.7366 0 0 0-.592.1068 1.6058 1.6058 0 0 0-.5236.3102 1.5597 1.5597 0 0 0-.3846.5315 1.7718 1.7718 0 0 0-.1442.7349v3.6389c-.0068.256.0424.5104.1442.7451.0898.1957.221.3693.3846.5086.1516.1407.3296.2497.5236.3204.1897.0698.39.1059.592.1068a1.7115 1.7115 0 0 0 .5919-.1068 1.6543 1.6543 0 0 0 .5363-.3204 1.5536 1.5536 0 0 0 .3744-.5086 1.754 1.754 0 0 0 .1442-.7451v-3.6389a1.7702 1.7702 0 0 0-.1442-.7349 1.6411 1.6411 0 0 0-.3744-.5315Zm-.4629 4.9053a.6524.6524 0 0 1-.1973.5264.7261.7261 0 0 1-.9335 0 .6526.6526 0 0 1-.1973-.5264v-3.6389a.6526.6526 0 0 1 .1973-.5264.7264.7264 0 0 1 .4667-.17.7267.7267 0 0 1 .4668.17.6532.6532 0 0 1 .1973.5264v3.6389ZM49.3673 51.7864v-6.8887h-.9537l-1.2522 3.6465h-.0177l-1.2624-3.6465h-.9436v6.8887h.9841v-4.1907h.0177l.9638 2.9625h.4908l.9714-2.9625h.0177v4.1907h.9841ZM54.9581 45.3807a1.367 1.367 0 0 0-.5566-.3764 2.1838 2.1838 0 0 0-.7134-.1068H52.226v6.8888h.9815v-2.6904h.5059c.3063.0139.611-.0508.8854-.1882a1.4301 1.4301 0 0 0 .5389-.5264c.1135-.1832.19-.3871.2251-.6001a4.8985 4.8985 0 0 0 .0531-.7832 3.923 3.923 0 0 0-.0961-.9841 1.467 1.467 0 0 0-.3617-.6332Zm-.506 2.1005a.8663.8663 0 0 1-.0911.3585.553.553 0 0 1-.2529.2416 1.0071 1.0071 0 0 1-.463.0864h-.4477v-2.342h.5059a.941.941 0 0 1 .4427.0865.5552.5552 0 0 1 .2302.2543c.0537.121.0829.2515.086.3839v.4578c0 .1602.0101.3255 0 .473h-.0101ZM59.6077 44.8977h-.8045l-1.5178 6.8887h.9815l.2884-1.4799h1.3382l.2884 1.4799h.9816l-1.5558-6.8887Zm-.9057 4.4704.4832-2.4971h.0177l.4807 2.4971h-.9816ZM65.9497 49.0477h-.0177l-1.4824-4.15h-.9436v6.8887h.9815V47.644h.0203l1.5001 4.1424h.9233v-6.8887h-.9815v4.15ZM71.9476 44.8977l-.7893 2.7387h-.0202l-.7893-2.7387h-1.0397l1.3483 3.9771v2.9116h.9816v-2.9116l1.3483-3.9771h-1.0397Z"/>
  </g>
</symbol>

<!-- Client 3 -->
<symbol id="client3" viewBox="0 0 106 54">
  <path  d="M36.4063 49.1885a.1333.1333 0 0 1 .0461.0092.122.122 0 0 1 .0384.0239l.2181.2085c-.1693.1688-.3785.3037-.6134.3957a2.3888 2.3888 0 0 1-.8698.1421 2.3143 2.3143 0 0 1-.8179-.1326c-.2339-.085-.444-.2127-.6162-.3744-.1757-.1677-.3111-.3642-.3981-.5781a1.9255 1.9255 0 0 1-.139-.7415 1.7994 1.7994 0 0 1 .1499-.744c.0953-.2152.2389-.4117.4226-.5781.1862-.1631.4089-.2913.6544-.3767a2.5675 2.5675 0 0 1 .8425-.1327 2.2699 2.2699 0 0 1 .7825.1209 2.112 2.112 0 0 1 .5862.334l-.1827.2227a.1755.1755 0 0 1-.0464.0403.1244.1244 0 0 1-.0736.0166.1769.1769 0 0 1-.079-.0237l-.0982-.0592-.1363-.0758a1.5551 1.5551 0 0 0-.1827-.0735 1.9222 1.9222 0 0 0-.2481-.0592 1.9025 1.9025 0 0 0-.3245-.0237 1.7613 1.7613 0 0 0-.6052.0995c-.1792.0629-.3409.1582-.4744.2796-.136.129-.2408.2805-.3081.4454a1.4975 1.4975 0 0 0-.1118.5876 1.5277 1.5277 0 0 0 .1118.597c.0665.1635.1693.314.3026.4431.1249.1203.2797.2142.4526.2748.178.0641.369.0963.5617.0948a2.3839 2.3839 0 0 0 .3326-.019 1.3163 1.3163 0 0 0 .5044-.1587 1.6673 1.6673 0 0 0 .2154-.1469.17.17 0 0 1 .1036-.0379ZM42.7044 48.1408a1.8088 1.8088 0 0 1-.1472.7368c-.0888.2138-.2288.4087-.4107.5721-.1819.1633-.4015.2913-.6444.3755a2.654 2.654 0 0 1-1.6577 0c-.2414-.0855-.4596-.2138-.6407-.3766-.1818-.1664-.3228-.363-.4144-.5781-.1964-.4772-.1964-.9987 0-1.4759.093-.2152.2338-.4124.4144-.5804.1827-.1578.4008-.2812.6407-.3625a2.6105 2.6105 0 0 1 1.6577 0c.2422.0855.4613.2138.6434.3767.1795.1647.3195.3588.4117.5709.101.2373.1509.4886.1472.7415Zm-.5725 0a1.5654 1.5654 0 0 0-.1036-.5922c-.0611-.1636-.1604-.3144-.2917-.443-.1279-.1217-.2853-.2172-.4608-.2796a1.9176 1.9176 0 0 0-1.2051 0c-.1755.0624-.3329.1579-.4608.2796-.1331.1279-.2335.2789-.2944.443a1.738 1.738 0 0 0 0 1.1845c.0615.1639.1618.3148.2944.443.128.121.2854.2157.4608.2772a1.9653 1.9653 0 0 0 1.2051 0c.1754-.0615.3328-.1562.4608-.2772.1307-.129.2299-.2797.2917-.443a1.5513 1.5513 0 0 0 .1036-.5923ZM47.0013 48.7617l.0573.1327c.0218-.0474.0409-.09.0627-.1327a1.201 1.201 0 0 1 .0709-.1302l1.3932-2.2006c.0273-.0379.0518-.0616.0791-.0687a.3761.3761 0 0 1 .1145-.0119h.4117v3.5792h-.4881v-2.743a.974.974 0 0 1 0-.1232l-1.4014 2.2314a.2027.2027 0 0 1-.082.0814.2447.2447 0 0 1-.1197.0299h-.0791a.2417.2417 0 0 1-.12-.0295.2007.2007 0 0 1-.0818-.0818l-1.4423-2.2456v2.8733h-.4716v-3.5721h.4117a.3768.3768 0 0 1 .1145.0119.1531.1531 0 0 1 .0763.0687l1.4232 2.2029a.7567.7567 0 0 1 .0709.1279ZM52.2443 48.5839v1.3407h-.5453v-3.5744h1.216a2.5988 2.5988 0 0 1 .6789.0782c.1765.0434.3402.1194.4799.2226.1211.0968.2145.2169.2726.3506.0644.1458.0959.301.0927.4572a1.0252 1.0252 0 0 1-.1008.4571c-.0656.1372-.1663.2595-.2945.3577a1.3915 1.3915 0 0 1-.4826.2369 2.3066 2.3066 0 0 1-.6571.0829l-.6598-.0095Zm0-.3837h.6598c.1434.0016.286-.0168.4226-.0545a.9224.9224 0 0 0 .3054-.154.6342.6342 0 0 0 .1854-.2368.686.686 0 0 0 .0654-.3009.6038.6038 0 0 0-.0547-.2912.6888.6888 0 0 0-.1906-.2441c-.2083-.1413-.47-.2097-.7335-.1919h-.6598v1.4734ZM59.5731 49.9294h-.4308a.205.205 0 0 1-.12-.0331.2241.2241 0 0 1-.0709-.083l-.3708-.8646h-1.8621l-.3845.8646a.1958.1958 0 0 1-.0681.0806.2042.2042 0 0 1-.1227.0355h-.4308l1.6359-3.5795h.5671l1.6577 3.5795Zm-2.6992-1.329h1.5377l-.6489-1.4569a2.3666 2.3666 0 0 1-.1227-.3364l-.0627.1871a1.6785 1.6785 0 0 1-.06.1516l-.6434 1.4546ZM61.9288 46.3665a.231.231 0 0 1 .0818.064l2.3856 2.6982V46.3499h.4881v3.5795h-.2727a.2638.2638 0 0 1-.1118-.0213.2968.2968 0 0 1-.0872-.0663l-2.3829-2.6959a.974.974 0 0 1 0 .1232v2.6603h-.4881v-3.5795h.289a.2605.2605 0 0 1 .0982.0166ZM68.9031 48.5058v1.4214h-.5453v-1.4214L66.85 46.3501h.4881a.1957.1957 0 0 1 .1172.0308.3116.3116 0 0 1 .0736.0805l.9434 1.3906c.0382.0592.0709.1137.0982.1658a1.439 1.439 0 0 1 .0681.1517l.0709-.154a1.2374 1.2374 0 0 1 .0927-.1635l.9297-1.4a.3765.3765 0 0 1 .0709-.0759.1833.1833 0 0 1 .1173-.0355h.4935l-1.5105 2.1652ZM46.7314 40.3431c.2372.0261.4772.0474.7198.0663 3.6789-1.4298 6.791-3.7701 8.9475-6.7282 2.1565-2.9582 3.2616-6.403 3.1772-9.9038l-4.0543-3.5226c.8244 3.7273.4388 7.5804-1.1136 11.1281-1.5525 3.5477-4.2104 6.6502-7.6766 8.9602Z"/>
  <path  d="m45.2837 40.1793.1091.0189c3.7038-2.3018 6.5277-5.5162 8.1065-9.2274 1.5787-3.7111 1.8396-7.7485.749-11.5899l-5.7746-5.0172c2.3357 4.124 3.2758 8.7394 2.7111 13.3094-.5647 4.5701-2.6111 8.9069-5.9011 12.5062ZM64.8679 27.9136c-.9811 3.8466-3.3638 7.3157-6.7944 9.8923-1.0019.7567-2.0826 1.4307-3.2281 2.0135 2.7935-.7133 5.3611-1.9746 7.5048-3.6864 2.1438-1.7118 3.8064-3.8286 4.8598-6.1869l-2.3421-2.0325Z"/>
  <path  d="M63.9491 27.3472 60.6146 24.45c-.0637 3.3031-1.1445 6.5311-3.13 9.3485-1.9855 2.8173-4.8032 5.1213-8.1603 6.6723h.0163a21.7448 21.7448 0 0 0 2.2385-.1161c3.1374-1.1126 5.9089-2.8827 8.0674-5.1524 2.1584-2.2697 3.6366-4.9683 4.3026-7.8551ZM45.7663 12.2479l-3.978-3.461c-3.5561 1.194-6.6145 3.293-8.7749 6.0222-2.1605 2.7292-3.3222 5.9615-3.3333 9.2738.0133 3.6601 1.4312 7.2118 4.0292 10.0929 2.598 2.8812 6.2278 4.9272 10.3148 5.8143 3.6484-3.8621 5.7845-8.6343 6.0978-13.6233.3133-4.989-1.2125-9.9348-4.3556-14.1189ZM73.1401 26.8144c-.0144-4.3425-2.0062-8.5036-5.5404-11.5742-3.5341-3.0706-8.3233-4.8012-13.3213-4.8137-2.3096-.0021-4.5995.3682-6.7535 1.0921l24.3556 21.1611c.8339-1.8706 1.261-3.8594 1.2596-5.8653Z"/>
</symbol>

<!-- Client 4 -->
<symbol id="client4" viewBox="0 0 106 54">
<path  d="M24.1462 21.1899h-.0029c-2.398 0-4.342 1.7276-4.342 3.8586v.0026c0 2.1311 1.944 3.8587 4.342 3.8587h.0029c2.398 0 4.342-1.7276 4.342-3.8587v-.0026c0-2.131-1.944-3.8586-4.342-3.8586ZM56.195 19.9563c-.0068-2.96-1.3327-5.797-3.6876-7.8903s-5.547-3.2723-8.8777-3.279c-3.3317.0054-6.5252 1.1838-8.8813 3.2772-2.3562 2.0934-3.6829 4.9313-3.6897 7.8921v16.3229s25.1335-2.4878 25.1363-16.3203v-.0026ZM11 41.6365c.006 2.0596.9291 4.0333 2.5676 5.4899s3.8591 2.2776 6.1766 2.2837c2.317-.006 4.5372-.8267 6.1755-2.2828 1.6384-1.456 2.5619-3.4291 2.5687-5.4883V30.2814S11 32.0136 11 41.6365Zm8.7442 2.035c-.4529 0-.8956-.1194-1.2722-.343-.3765-.2236-.67-.5414-.8433-.9132-.1733-.3719-.2187-.7811-.1303-1.1758.0883-.3947.3064-.7573.6266-1.0419.3203-.2846.7283-.4784 1.1725-.557.4441-.0785.9045-.0382 1.323.1158.4184.1541.776.4149 1.0276.7495.2516.3347.3859.7281.3859 1.1306a1.8408 1.8408 0 0 1-.1718.7811c-.1146.2478-.2831.473-.4958.6628-.2128.1898-.4656.3403-.744.4431a2.5412 2.5412 0 0 1-.8782.1556v-.0076ZM35.7302 40.0283v4.2656h-.8789v-4.2656h.8789Zm1.6992 1.8223v.6855h-1.9395v-.6855h1.9395Zm.2051-1.8223v.6885h-2.1446v-.6885h2.1446Zm4.0136 2.0332v.2022c0 .3242-.0439.6152-.1318.873-.0879.2578-.2119.4776-.3721.6592a1.612 1.612 0 0 1-.5742.4131c-.2207.0957-.4658.1435-.7353.1435-.2676 0-.5127-.0478-.7354-.1435a1.6478 1.6478 0 0 1-.5742-.4131c-.1621-.1816-.2881-.4014-.3779-.6592-.0879-.2578-.1319-.5488-.1319-.873v-.2022c0-.3261.044-.6172.1319-.873.0878-.2578.2119-.4776.372-.6592a1.6318 1.6318 0 0 1 .5742-.416c.2227-.0957.4678-.1436.7354-.1436.2695 0 .5146.0479.7353.1436.2227.0957.4141.2344.5743.416.1621.1816.2871.4014.375.6592.0898.2558.1347.5469.1347.873Zm-.8877.2022v-.208c0-.2266-.0205-.4258-.0615-.5977-.041-.1719-.1015-.3164-.1816-.4336-.0801-.1172-.1778-.2051-.293-.2637-.1152-.0605-.2471-.0908-.3955-.0908-.1484 0-.2803.0303-.3955.0908-.1133.0586-.21.1465-.2901.2637-.0781.1172-.1376.2617-.1787.4336-.041.1719-.0615.3711-.0615.5977v.208c0 .2246.0205.4238.0615.5976.0411.1719.1016.3174.1817.4366.0801.1171.1777.206.2929.2666.1153.0605.2471.0908.3956.0908.1484 0 .2802-.0303.3955-.0908.1152-.0606.2119-.1495.29-.2666.0781-.1192.1377-.2647.1787-.4366.041-.1738.0615-.373.0615-.5976Zm3.7412.914c0-.0761-.0117-.1445-.0351-.205-.0215-.0625-.0625-.1192-.1231-.17-.0605-.0527-.1455-.1045-.2548-.1552-.1094-.0508-.251-.1036-.4248-.1582a5.3767 5.3767 0 0 1-.5508-.211c-.1719-.0781-.3242-.1689-.4571-.2724-.1308-.1055-.2343-.2276-.3105-.3663-.0742-.1386-.1113-.2998-.1113-.4834 0-.1777.039-.3388.1172-.4833.0781-.1465.1875-.2715.3281-.375.1406-.1055.3066-.1866.498-.2432.1934-.0567.4053-.085.6358-.085.3144 0 .5888.0567.8232.1699.2344.1133.416.2686.5449.4659.1309.1972.1963.4228.1963.6767h-.873c0-.125-.0264-.2343-.0791-.3281-.0508-.0957-.1289-.1709-.2344-.2256-.1035-.0547-.2344-.082-.3926-.082-.1523 0-.2793.0234-.3808.0703-.1016.0449-.1778.1064-.2286.1846-.0507.0761-.0761.1621-.0761.2578 0 .0722.0176.1377.0527.1963.0371.0586.0918.1133.1641.164.0722.0508.1611.0987.2666.1436.1054.0449.2275.0889.3662.1318.2324.0703.4365.1494.6123.2373.1777.0879.3262.1866.4453.2959.1191.1094.209.2334.2695.3721.0606.1387.0909.2959.0909.4717 0 .1855-.0362.3515-.1084.498-.0723.1465-.1768.2705-.3135.3721-.1367.1016-.2998.1787-.4893.2314-.1894.0528-.4013.0791-.6357.0791-.211 0-.419-.0273-.624-.082-.2051-.0566-.3916-.1416-.5596-.2549a1.286 1.286 0 0 1-.3985-.4336c-.0996-.1758-.1494-.3838-.1494-.624h.8819c0 .1328.0205.2451.0615.3369.041.0918.0986.166.1728.2227.0762.0566.1661.0976.2696.123.1054.0254.2207.0381.3457.0381.1523 0 .2773-.0215.375-.0644.0996-.043.1728-.1026.2197-.1788.0488-.0761.0732-.1621.0732-.2578Zm3.3838-3.1494v4.2656h-.8759v-4.2656h.8759Zm1.3125 0v.6885h-3.4804v-.6885h3.4804Zm3.3633 3.5801v.6855h-2.2705v-.6855h2.2705Zm-1.9834-3.5801v4.2656h-.8789v-4.2656h.8789Zm1.6875 1.7373v.668h-1.9746v-.668h1.9746Zm.293-1.7373v.6885h-2.2676v-.6885h2.2676Zm.5156 0h1.5908c.3262 0 .6065.0488.8409.1465.2363.0977.4179.2422.5449.4336.1269.1914.1904.4268.1904.7061 0 .2285-.0391.4248-.1172.5888a1.1027 1.1027 0 0 1-.3252.4072c-.1386.1075-.3017.1934-.4892.2579l-.2784.1464h-1.3828l-.0058-.6855h1.0283c.1543 0 .2822-.0273.3838-.082.1015-.0547.1777-.1309.2285-.2285.0527-.0977.0791-.211.0791-.3399 0-.1367-.0254-.2549-.0762-.3545-.0508-.0996-.1279-.1758-.2314-.2285-.1035-.0527-.2334-.0791-.3897-.0791h-.7119v3.5771h-.8789v-4.2656Zm2.3848 4.2656-.9727-1.9013.9287-.0059.9844 1.8662v.041h-.9404Zm4.6142-1.5205H58.986v-.6855h1.0869c.168 0 .3047-.0274.4102-.082.1055-.0567.1826-.1348.2314-.2344.0489-.0996.0733-.2119.0733-.3369 0-.127-.0244-.2451-.0733-.3545-.0488-.1094-.1259-.1973-.2314-.2637-.1055-.0664-.2422-.0996-.4102-.0996h-.7822v3.5771h-.8789v-4.2656h1.6611c.334 0 .6202.0606.8584.1817.2403.1191.4239.2841.5508.4951.127.2109.1904.4521.1904.7236 0 .2754-.0634.5137-.1904.7149-.1269.2011-.3105.3564-.5508.4658-.2382.1094-.5244.164-.8584.164Zm5.0684.835v.6855h-2.2705v-.6855h2.2705Zm-1.9834-3.5801v4.2656h-.8789v-4.2656h.8789Zm1.6875 1.7373v.668h-1.9746v-.668h1.9746Zm.293-1.7373v.6885h-2.2676v-.6885h2.2676Zm2.4814 0v4.2656h-.876v-4.2656h.876Zm1.3125 0v.6885h-3.4805v-.6885h3.4805Zm3.3633 3.5801v.6855h-2.2705v-.6855h2.2705Zm-1.9834-3.5801v4.2656h-.8789v-4.2656h.8789Zm1.6875 1.7373v.668h-1.9746v-.668h1.9746Zm.293-1.7373v.6885h-2.2676v-.6885h2.2676Zm.5156 0h1.5908c.3262 0 .6065.0488.8408.1465.2364.0977.418.2422.545.4336.1269.1914.1904.4268.1904.7061 0 .2285-.0391.4248-.1172.5888a1.1027 1.1027 0 0 1-.3252.4072c-.1387.1075-.3018.1934-.4893.2579l-.2783.1464h-1.3828l-.0059-.6855h1.0284c.1543 0 .2822-.0273.3838-.082.1015-.0547.1777-.1309.2285-.2285.0527-.0977.0791-.211.0791-.3399 0-.1367-.0254-.2549-.0762-.3545-.0508-.0996-.1279-.1758-.2314-.2285-.1036-.0527-.2334-.0791-.3897-.0791h-.7119v3.5771h-.8789v-4.2656Zm2.3848 4.2656-.9727-1.9013.9287-.0059.9844 1.8662v.041h-.9404Zm3.6796-1.1162c0-.0761-.0117-.1445-.0351-.205-.0215-.0625-.0625-.1192-.1231-.17-.0605-.0527-.1455-.1045-.2548-.1552-.1094-.0508-.251-.1036-.4248-.1582a5.3767 5.3767 0 0 1-.5508-.211c-.1719-.0781-.3242-.1689-.4571-.2724-.1308-.1055-.2343-.2276-.3105-.3663-.0742-.1386-.1113-.2998-.1113-.4834 0-.1777.039-.3388.1172-.4833.0781-.1465.1875-.2715.3281-.375.1406-.1055.3066-.1866.498-.2432.1934-.0567.4053-.085.6358-.085.3144 0 .5888.0567.8232.1699.2344.1133.416.2686.5449.4659.1309.1972.1963.4228.1963.6767h-.873c0-.125-.0264-.2343-.0791-.3281-.0508-.0957-.1289-.1709-.2344-.2256-.1035-.0547-.2344-.082-.3926-.082-.1523 0-.2793.0234-.3808.0703-.1016.0449-.1778.1064-.2286.1846-.0507.0761-.0761.1621-.0761.2578a.374.374 0 0 0 .0527.1963c.0371.0586.0918.1133.1641.164.0722.0508.1611.0987.2666.1436.1054.0449.2275.0889.3662.1318.2324.0703.4365.1494.6123.2373.1777.0879.3262.1866.4453.2959.1191.1094.209.2334.2695.3721.0606.1387.0908.2959.0908.4717 0 .1855-.0361.3515-.1084.498-.0722.1465-.1767.2705-.3134.3721-.1367.1016-.2998.1787-.4893.2314-.1894.0528-.4014.0791-.6357.0791-.211 0-.419-.0273-.6241-.082-.205-.0566-.3916-.1416-.5595-.2549a1.286 1.286 0 0 1-.3985-.4336c-.0996-.1758-.1494-.3838-.1494-.624h.8819c0 .1328.0205.2451.0615.3369.041.0918.0986.166.1728.2227.0762.0566.1661.0976.2696.123.1054.0254.2207.0381.3457.0381.1523 0 .2773-.0215.375-.0644.0996-.043.1728-.1026.2197-.1788.0488-.0761.0732-.1621.0732-.2578Z"/>
</symbol>

<!-- Client 5 -->
<symbol id="client5" viewBox="0 0 106 54">
  <g clip-path="url(#a)">
    <path d="M26.7569 44.8221c.2437.2762.3735.622.3667.977a1.4305 1.4305 0 0 1-.1306.6763c-.0983.2136-.2479.4043-.4376.5578-.4734.3273-1.0598.4873-1.6517.4506H22v-6.1914h2.8442c.5615-.0342 1.1184.1112 1.5758.4113.1836.1408.3291.3187.4248.5198.0958.201.1392.4196.1268.6387.0167.3415-.1004.6773-.3303.9467-.2207.246-.5257.4165-.8655.4839.3852.0644.7329.252.9811.5293Zm-3.4058-.9346h1.2156c.2763.0187.5507-.0543.773-.2056a.7383.7383 0 0 0 .2076-.2746.6797.6797 0 0 0 .0534-.3304.7014.7014 0 0 0-.0546-.3289.7593.7593 0 0 0-.2031-.276c-.2289-.1556-.5118-.2298-.7961-.2087h-1.1958v1.6242Zm2.1076 2.3744a.777.777 0 0 0 .2241-.2838.7114.7114 0 0 0 .0633-.3453.7224.7224 0 0 0-.0662-.349.7876.7876 0 0 0-.2278-.2862c-.2379-.1615-.5304-.2407-.8259-.2238h-1.2751v1.7028h1.2916c.2907.0154.5785-.0603.816-.2147ZM32.5709 47.4839l-1.5823-2.4198h-.5946v2.4198h-1.361v-6.1915h2.5766c.6495-.0415 1.2916.1469 1.7938.5263.3601.336.5774.7788.6125 1.2485.0351.4698-.1141.9355-.4209 1.3134-.3179.3334-.7522.5558-1.2289.6291l1.6847 2.4742h-1.4799Zm-2.1769-3.2636h1.1132c.773 0 1.1595-.3126 1.1595-.9377a.852.852 0 0 0-.0622-.3752.917.917 0 0 0-.2219-.3205c-.2443-.186-.5589-.2762-.8754-.251h-1.1265l.0133 1.8844ZM40.0102 46.2376h-2.7121l-.479 1.2461H35.392l2.4908-6.1219h1.5427l2.4808 6.1219h-1.427l-.4691-1.2461Zm-.3634-.9377-.991-2.6133-.991 2.6133h1.982ZM49.3224 47.4838h-1.3511l-3.0292-4.2103v4.2103h-1.3478v-6.1914h1.3478l3.0292 4.2345v-4.2345h1.3511v6.1914ZM57.0326 46.0018c-.2794.4674-.705.8477-1.2223 1.0919-.5881.272-1.2408.4061-1.8994.3902H51.506v-6.1915h2.4049c.6575-.0157 1.3093.1151 1.8994.3811.5172.2387.9433.6151 1.2223 1.0798.2781.5036.423 1.06.423 1.6243 0 .5642-.1449 1.1206-.423 1.6242Zm-1.546-.1482c.3856-.4113.5976-.9355.5976-1.4776 0-.542-.212-1.0662-.5976-1.4775-.4661-.3726-1.0739-.5617-1.6914-.5263h-.9381v4.0077h.9381c.6175.0354 1.2253-.1538 1.6914-.5263ZM40.8558 6.8536s17.4387 6.0282 17.0687 14.7513v14.7542S40.4991 30.328 40.8624 21.6049l-.0066-14.7513ZM73.4603 32.9049c3.2935-2.0753 7.103-3.3607 11.0796-3.7385v-4.6186c-4.582 1.617-8.469 4.5489-11.0796 8.3571Z"/>
    <path d="M71.4816 34.2964c2.6957-4.9699 7.3689-8.805 13.0584-10.7164V10.2715s-24.835 8.587-24.3097 21.0093V52.287s1.1066-.3841 2.8475-1.104c0-.6715 0-1.349.0793-2.0295.514-5.767 3.5083-11.1111 8.3245-14.8571Z"/>
    <path d="M69.1197 42.1a20.0494 20.0494 0 0 1 .8688-4.301c-2.9989 3.235-4.8151 7.2494-5.1929 11.4785-.0364.3993-.0562.7985-.0661 1.2099 1.4105-.6201 3.0523-1.3944 4.7767-2.3048a19.9433 19.9433 0 0 1-.3865-6.0826ZM70.1075 42.1756a19.0514 19.0514 0 0 0 .3072 5.5079c6.7852-3.7173 14.4094-9.4611 14.1154-16.4027v-.6049c-4.8477.4967-9.3833 2.437-12.9097 5.523-.8256 1.9124-1.3355 3.9268-1.5129 5.9767Z"/>
  </g>
</symbol>

<!-- Client 6 -->
<symbol id="client6" viewBox="0 0 106 54">
  <path  d="M53.425 27.4952c-.4431-.5898-.6551-1.2869-.6047-1.9886v-2.8832c0-.8838.2004-1.5555.6013-2.015.4008-.4595 1.0894-.6883 2.0655-.6863.9173 0 1.5684.1955 1.9534.5866.42.499.6243 1.1091.5775 1.7246v.6775h-1.6408v-.6863a3.495 3.495 0 0 0-.0476-.6717c-.0236-.152-.1062-.2926-.2344-.3988-.1685-.1146-.3807-.1701-.5945-.1555-.2248-.0145-.4478.0441-.6251.1643-.1429.1176-.2382.2719-.2718.4399a3.3302 3.3302 0 0 0-.0645.7127v3.4992c-.0259.3375.0465.6753.2106.9825.0816.104.1949.1864.3275.2382a.9013.9013 0 0 0 .4233.0551c.2102.015.4188-.0419.5809-.1583.1337-.1146.2197-.2641.2446-.4253a3.8601 3.8601 0 0 0 .051-.701v-.7098h1.6408v.6482c.0461.6415-.1532 1.2784-.5673 1.8126-.3771.4282-1.0192.6423-1.9636.6423-.9444 0-1.6579-.2287-2.0621-.7039ZM60.2569 27.5245c-.4145-.4487-.6217-1.1028-.6217-1.968v-3.0328c0-.8565.2072-1.5047.6217-1.9446.4144-.44 1.1075-.659 2.079-.657.9648 0 1.6545.219 2.0689.657.4145.4399.6251 1.0881.6251 1.9446v3.0328c0 .8564-.2106 1.5134-.6319 1.9651-.4212.4517-1.1074.6775-2.0621.6775-.9546 0-1.6612-.2287-2.079-.6746Zm2.8434-.7274c.1484-.2811.216-.589.1971-.8975v-3.7132c.019-.3025-.0475-.6045-.1937-.8799-.0832-.1062-.1994-.1899-.3351-.2418a.9056.9056 0 0 0-.4327-.0515.9166.9166 0 0 0-.4338.0521c-.1362.0518-.253.1353-.3373.2412-.1494.2746-.2171.577-.197.8799v3.7308c-.0207.3086.047.6169.197.8975.0956.0947.2137.1705.3461.2224.1324.052.2762.0789.4217.0789.1454 0 .2892-.0269.4216-.0789a1.0195 1.0195 0 0 0 .3461-.2224v-.0176ZM67.0035 20.0106h1.7666l1.3283 5.5956 1.3589-5.5956h1.719l.1733 8.0767H72.079l-.1359-5.6133-1.3113 5.6133h-1.0192l-1.3589-5.6338-.1257 5.6338h-1.2841l.1596-8.0767ZM75.3302 20.0106h2.7517c1.5854 0 2.378.7644 2.378 2.2933 0 1.4645-.8345 2.1957-2.5037 2.1937h-.9376v3.5897H75.32l.0102-8.0767Zm2.3509 3.4518c.1678.0184.3382.0051.4995-.039a1.224 1.224 0 0 0 .4347-.2162c.1948-.2728.2807-.5931.2446-.912a2.5254 2.5254 0 0 0-.0816-.7332.5935.5935 0 0 0-.125-.2216.7015.7015 0 0 0-.2147-.1626 1.7572 1.7572 0 0 0-.7575-.1291h-.6591v2.4137h.6591ZM82.9094 20.0106h1.8243l1.8718 8.0767h-1.583l-.3703-1.8623h-1.6273l-.3805 1.8623h-1.6068l1.8718-8.0767Zm1.5593 5.2789-.6353-3.3903-.6352 3.3903h1.2705ZM88.1173 20.0106h1.189l2.2762 4.6073v-4.6073h1.4098v8.0767H91.861l-2.2897-4.8097v4.8097h-1.4574l.0034-8.0767ZM96.2945 25.0077l-1.8923-4.9858h1.5933l1.1551 3.2026 1.0837-3.2026h1.5593l-1.8685 4.9858v3.0795h-1.6306v-3.0795ZM56.0477 31.6185v.4224h-1.386v3.2819h-.581v-3.2819h-1.3928v-.4224h3.3598ZM60.3927 35.3231h-.4485a.1991.1991 0 0 1-.1257-.0352.1937.1937 0 0 1-.0747-.085l-.4009-.8799h-1.9228l-.4009.8799a.2424.2424 0 0 1-.0612.0997.2071.2071 0 0 1-.1256.0352h-.4485l1.6986-3.7041h.5912l1.719 3.6894Zm-2.813-1.3755h1.6036l-.6795-1.5074a2.6989 2.6989 0 0 1-.1257-.349c-.0238.0704-.0442.1378-.0645.1965l-.0612.1554-.6727 1.5045ZM63.3211 34.9593c.1064.0048.213.0048.3193 0a1.9172 1.9172 0 0 0 .2718-.044 2.084 2.084 0 0 0 .2446-.0675c.0748-.0264.1495-.0587.2276-.0909v-.833h-.6794a.1395.1395 0 0 1-.0494-.0065.1246.1246 0 0 1-.0423-.0229.0864.0864 0 0 1-.0259-.0304.074.074 0 0 1-.0081-.037v-.2846h1.3181v1.4197a2.506 2.506 0 0 1-.7168.3021 3.0556 3.0556 0 0 1-.4247.0763 5.1605 5.1605 0 0 1-.4959.0235 2.5935 2.5935 0 0 1-.8562-.1379c-.2543-.0883-.4854-.22-.6794-.3872-.1891-.1689-.338-.3682-.4382-.5866a1.8513 1.8513 0 0 1-.1563-.7685 1.9201 1.9201 0 0 1 .1529-.7744c.0977-.2195.2469-.4192.4382-.5866.1939-.1667.4251-.2974.6795-.3843a2.851 2.851 0 0 1 .9104-.1378 3.4149 3.4149 0 0 1 .4722.0322 2.333 2.333 0 0 1 .4043.0939c.1188.0385.2327.0877.3397.1466.1041.0579.203.1227.2956.1936l-.1631.2288a.1428.1428 0 0 1-.0551.0509.1717.1717 0 0 1-.0774.0195.2223.2223 0 0 1-.1053-.0293 2.1135 2.1135 0 0 1-.1665-.088 1.5038 1.5038 0 0 0-.2276-.0997 2.1267 2.1267 0 0 0-.3125-.0822 2.6144 2.6144 0 0 0-.4315-.0322 2.009 2.009 0 0 0-.6556.1026c-.1891.0655-.3595.1656-.4994.2934-.1408.1331-.2484.2899-.316.4605a1.732 1.732 0 0 0 0 1.2348c.0744.1743.1901.3331.3398.4664.1393.1271.3084.2271.496.2933.216.0641.4449.089.6726.0734ZM68.7362 34.9005h1.8549v.4223h-2.4222v-3.7043h.5809l-.0136 3.282ZM72.5208 35.3228h-.581v-3.7043h.581v3.7043ZM74.6814 31.6361a.279.279 0 0 1 .0883.0675l2.4833 2.7923a.8812.8812 0 0 1 0-.132V31.6039h.5062v3.7192h-.2921a.275.275 0 0 1-.1257-.0206.3276.3276 0 0 1-.0918-.0704l-2.4799-2.7893v2.8803h-.4858v-3.7046h.3024a.2678.2678 0 0 1 .0951.0176ZM82.0364 31.6185v.4077h-2.0587v1.2231h1.668v.393h-1.668v1.2641h2.0587v.4077h-2.6566v-3.6956h2.6566ZM21.1617 8.7424l25.7951 6.3233v22.158l-25.7951-6.3204V8.7424Zm-1.6544-1.8888v25.1261l29.1006 7.1357V13.9923L19.5073 6.8536Z"/>
  <path  d="M35.1039 50.7791 6 43.6375V18.514l29.1039 7.1388v25.1263Z"/>
  <path  d="m19.9897 8.4579 25.4587 6.244-10.8269 9.3499-25.4621-6.2469 10.8303-9.347Zm-.4824-1.6043L6 18.5146l29.1039 7.1385 13.5039-11.6609-29.1005-7.1386ZM36.7414 49.3657l11.8664-10.2472-11.8664-2.9123v13.1595Z"/>
</symbol>

<!-- Black Person icon -->
<symbol id="black-person-icon" viewBox="0 0 18 18" >
<g clip-path="url(#clip0_1_2667)">
<path d="M9 9C10.6575 9 12 7.6575 12 6C12 4.3425 10.6575 3 9 3C7.3425 3 6 4.3425 6 6C6 7.6575 7.3425 9 9 9ZM9 10.5C6.9975 10.5 3 11.505 3 13.5V14.25C3 14.6625 3.3375 15 3.75 15H14.25C14.6625 15 15 14.6625 15 14.25V13.5C15 11.505 11.0025 10.5 9 10.5Z"/>
</g>
</symbol>

<!-- Black Mobile -->
<symbol id="black-mobile" viewBox="0 0 18 18">
<g clip-path="url(#clip0_1_2673)">
<path d="M13.996 11.1226L12.1579 10.9127C11.7164 10.862 11.2822 11.014 10.971 11.3252L9.63945 12.6568C7.59144 11.6147 5.91251 9.94296 4.87041 7.8877L6.20922 6.54888C6.5204 6.2377 6.67237 5.80349 6.62171 5.36205L6.41185 3.53836C6.325 2.80745 5.70988 2.25745 4.97173 2.25745H3.71976C2.902 2.25745 2.22175 2.93771 2.2724 3.75547C2.65595 9.93572 7.59868 14.8712 13.7717 15.2548C14.5894 15.3054 15.2697 14.6252 15.2697 13.8074V12.5555C15.2769 11.8245 14.7269 11.2094 13.996 11.1226Z"/>
</g>
<!-- <defs>
</defs> -->
</symbol>

<!-- Black E-mail -->
<symbol id="black-email" viewBox="0 0 18 18">
<g clip-path="url(#clip0_1_2679)">
<path d="M15 3H3C2.175 3 1.5075 3.675 1.5075 4.5L1.5 13.5C1.5 14.325 2.175 15 3 15H15C15.825 15 16.5 14.325 16.5 13.5V4.5C16.5 3.675 15.825 3 15 3ZM14.7 6.1875L9.3975 9.5025C9.1575 9.6525 8.8425 9.6525 8.6025 9.5025L3.3 6.1875C3.1125 6.0675 3 5.865 3 5.6475C3 5.145 3.5475 4.845 3.975 5.1075L9 8.25L14.025 5.1075C14.4525 4.845 15 5.145 15 5.6475C15 5.865 14.8875 6.0675 14.7 6.1875Z"/>
</g>
</symbol>

<!-- Check Box -->
<symbol id="white-check" viewBox="0 0 13 10">
<path d="M1.95703 4.75166L1.88825 4.68604L1.81923 4.75141L0.93123 5.59258L0.854858 5.66492L0.930974 5.73753L4.42671 9.07236L4.49574 9.1382L4.56476 9.07236L12.069 1.91352L12.1449 1.84116L12.069 1.76881L11.1873 0.927644L11.1183 0.861826L11.0493 0.927611L4.49577 7.17353L1.95703 4.75166Z"/>
<!-- fill="white" stroke="white" stroke-width="0.2" -->
</symbol>

<!-- <symbol id="bar-menu">
<path 
fill-rule="evenodd" 
clip-rule="evenodd" 
d="M8 14.6667V12H32V14.6667H8ZM8 21.3333H32V18.6667H8V21.3333ZM8 28H32V25.3333H8V28Z" fill="#212121"/>
</symbol> -->

<!-- Blue Check Box -->
<symbol id="blue-check" viewBox="0 0 16 15">
<svg width="16" height="15">
<rect width="16" height="15" rx="2" fill="#2196F3"/>
<path d="M3.95703 7.75166L3.88825 7.68604L3.81923 7.75141L2.93123 8.59258L2.85486 8.66492L2.93097 8.73753L6.42671 12.0724L6.49574 12.1382L6.56476 12.0724L14.069 4.91352L14.1449 4.84116L14.069 4.76881L13.1873 3.92764L13.1183 3.86183L13.0493 3.92761L6.49577 10.1735L3.95703 7.75166Z" fill="white" stroke="white" stroke-width="0.2"/>
</svg>
</symbol>



<!-- Send -->
<symbol id="send-icon" viewBox="0 0 24 24">
<svg>
<path d="M24 -0.00012207L0 13.4999L7.66994 16.3406L19.5 5.24988L10.5017 17.3894L10.509 17.3921L10.5 17.3894V23.9999L14.8013 18.9818L20.2501 20.9999L24 -0.00012207Z"/>
</svg>
</symbol>





  </defs>
</svg>