<svg xmlns="http://www.w3.org/2000/svg" width="106" height="53" fill="none">
  <g fill="#AFB1B8" clip-path="url(#a)">
    <path fill-rule="evenodd" d="M50.1136 6.0215h-.1366c-.2099-.0127-.4199-.0178-.6299-.0229h-.4553c-.3972 0-.802.0102-1.2042.0305a.6282.6282 0 0 0-.091 0A28.2753 28.2753 0 0 0 37.0805 8.712l-.4326.2085v22.1412l1.0119-.3433c.8879-.3052 1.834-.5798 2.813-.8341a34.3343 34.3343 0 0 1 8.0952-1.0757v2.9091a24.4361 24.4361 0 0 0-1.065.0305h-.0835a32.3608 32.3608 0 0 0-6.2282.9562 31.6258 31.6258 0 0 0-7.4197 2.8913V7.1989a29.727 29.727 0 0 1 7.784-3.166 29.7924 29.7924 0 0 1 7.3362-.946h.4275c.511.0128 1.0094.0357 1.4774.0713a21.0904 21.0904 0 0 1 3.6554.5823v2.8633a22.6239 22.6239 0 0 0-3.5416-.534l-.0726-.0062c-.2468-.021-.4939-.0421-.7243-.0421Zm5.0392 2.9269c.6349.0483 1.2927.0712 1.958.0712a31.4667 31.4667 0 0 0 7.7131-.9892 31.7771 31.7771 0 0 0 7.4172-2.8939v27.8907a29.815 29.815 0 0 1-7.7865 3.1659 29.9378 29.9378 0 0 1-7.3362.9434 22.4 22.4 0 0 1-5.5654-.656V8.4093c.43.0991.8727.1907 1.323.267.7387.1246 1.5179.2161 2.2768.272Zm14.1943.2161-1.0119.3408a44.5541 44.5541 0 0 1-2.8131.8417 34.2676 34.2676 0 0 1-8.4063 1.0782c-.6602 0-1.2673-.0178-1.8542-.056l-.807-.0534V34.0927l.6931.061a22.8513 22.8513 0 0 0 1.9732.0839 26.8837 26.8837 0 0 0 6.6203-.857 27.7634 27.7634 0 0 0 5.1733-1.8588l.4326-.2085V9.1645Z" clip-rule="evenodd"/>
    <path d="M35.7371 45.2994a1.4924 1.4924 0 0 0-.5147-.3478 1.4862 1.4862 0 0 0-.611-.1074 1.676 1.676 0 0 0-.6501.1221 1.503 1.503 0 0 0-.506.3331 1.4645 1.4645 0 0 0-.3263.5086 1.65 1.65 0 0 0-.1164.6281v3.794a1.789 1.789 0 0 0 .1493.7782c.0895.1944.2188.3677.3794.5085.1517.1277.3297.2198.5212.2696a2.112 2.112 0 0 0 .5666.0788 1.418 1.418 0 0 0 .6122-.1322 1.601 1.601 0 0 0 .506-.3509 1.6498 1.6498 0 0 0 .3313-.5086 1.5338 1.5338 0 0 0 .1215-.6052v-.4247h-.9917v.3382a.8796.8796 0 0 1-.0582.3382.6066.6066 0 0 1-.1442.2136.6048.6048 0 0 1-.2074.1094.6973.6973 0 0 1-.2074.0356.5041.5041 0 0 1-.4655-.2035.8978.8978 0 0 1-.1315-.5085v-3.5372a1.2073 1.2073 0 0 1 .1214-.5671.5046.5046 0 0 1 .4857-.2289.5268.5268 0 0 1 .4427.2136.806.806 0 0 1 .1644.5086v.3281h.9816v-.3866a1.7906 1.7906 0 0 0-.1215-.6637 1.5626 1.5626 0 0 0-.3314-.534ZM41.6289 45.2561a1.7652 1.7652 0 0 0-1.1282-.417 1.7366 1.7366 0 0 0-.592.1068 1.6058 1.6058 0 0 0-.5236.3102 1.5597 1.5597 0 0 0-.3846.5315 1.7718 1.7718 0 0 0-.1442.7349v3.6389c-.0068.256.0424.5104.1442.7451.0898.1957.221.3693.3846.5086.1516.1407.3296.2497.5236.3204.1897.0698.39.1059.592.1068a1.7115 1.7115 0 0 0 .5919-.1068 1.6543 1.6543 0 0 0 .5363-.3204 1.5536 1.5536 0 0 0 .3744-.5086 1.754 1.754 0 0 0 .1442-.7451v-3.6389a1.7702 1.7702 0 0 0-.1442-.7349 1.6411 1.6411 0 0 0-.3744-.5315Zm-.4629 4.9053a.6524.6524 0 0 1-.1973.5264.7261.7261 0 0 1-.9335 0 .6526.6526 0 0 1-.1973-.5264v-3.6389a.6526.6526 0 0 1 .1973-.5264.7264.7264 0 0 1 .4667-.17.7267.7267 0 0 1 .4668.17.6532.6532 0 0 1 .1973.5264v3.6389ZM49.3673 51.7864v-6.8887h-.9537l-1.2522 3.6465h-.0177l-1.2624-3.6465h-.9436v6.8887h.9841v-4.1907h.0177l.9638 2.9625h.4908l.9714-2.9625h.0177v4.1907h.9841ZM54.9581 45.3807a1.367 1.367 0 0 0-.5566-.3764 2.1838 2.1838 0 0 0-.7134-.1068H52.226v6.8888h.9815v-2.6904h.5059c.3063.0139.611-.0508.8854-.1882a1.4301 1.4301 0 0 0 .5389-.5264c.1135-.1832.19-.3871.2251-.6001a4.8985 4.8985 0 0 0 .0531-.7832 3.923 3.923 0 0 0-.0961-.9841 1.467 1.467 0 0 0-.3617-.6332Zm-.506 2.1005a.8663.8663 0 0 1-.0911.3585.553.553 0 0 1-.2529.2416 1.0071 1.0071 0 0 1-.463.0864h-.4477v-2.342h.5059a.941.941 0 0 1 .4427.0865.5552.5552 0 0 1 .2302.2543c.0537.121.0829.2515.086.3839v.4578c0 .1602.0101.3255 0 .473h-.0101ZM59.6077 44.8977h-.8045l-1.5178 6.8887h.9815l.2884-1.4799h1.3382l.2884 1.4799h.9816l-1.5558-6.8887Zm-.9057 4.4704.4832-2.4971h.0177l.4807 2.4971h-.9816ZM65.9497 49.0477h-.0177l-1.4824-4.15h-.9436v6.8887h.9815V47.644h.0203l1.5001 4.1424h.9233v-6.8887h-.9815v4.15ZM71.9476 44.8977l-.7893 2.7387h-.0202l-.7893-2.7387h-1.0397l1.3483 3.9771v2.9116h.9816v-2.9116l1.3483-3.9771h-1.0397Z"/>
  </g>
  <defs>
    <clipPath id="a">
      <path fill="#fff" d="M0 .087h106v52.826H0z"/>
    </clipPath>
  </defs>
</svg>
