<svg xmlns="http://www.w3.org/2000/svg" width="106" height="53" fill="none">
  <path fill="#AFB1B8" d="M53.425 27.4952c-.4431-.5898-.6551-1.2869-.6047-1.9886v-2.8832c0-.8838.2004-1.5555.6013-2.015.4008-.4595 1.0894-.6883 2.0655-.6863.9173 0 1.5684.1955 1.9534.5866.42.499.6243 1.1091.5775 1.7246v.6775h-1.6408v-.6863a3.495 3.495 0 0 0-.0476-.6717c-.0236-.152-.1062-.2926-.2344-.3988-.1685-.1146-.3807-.1701-.5945-.1555-.2248-.0145-.4478.0441-.6251.1643-.1429.1176-.2382.2719-.2718.4399a3.3302 3.3302 0 0 0-.0645.7127v3.4992c-.0259.3375.0465.6753.2106.9825.0816.104.1949.1864.3275.2382a.9013.9013 0 0 0 .4233.0551c.2102.015.4188-.0419.5809-.1583.1337-.1146.2197-.2641.2446-.4253a3.8601 3.8601 0 0 0 .051-.701v-.7098h1.6408v.6482c.0461.6415-.1532 1.2784-.5673 1.8126-.3771.4282-1.0192.6423-1.9636.6423-.9444 0-1.6579-.2287-2.0621-.7039ZM60.2569 27.5245c-.4145-.4487-.6217-1.1028-.6217-1.968v-3.0328c0-.8565.2072-1.5047.6217-1.9446.4144-.44 1.1075-.659 2.079-.657.9648 0 1.6545.219 2.0689.657.4145.4399.6251 1.0881.6251 1.9446v3.0328c0 .8564-.2106 1.5134-.6319 1.9651-.4212.4517-1.1074.6775-2.0621.6775-.9546 0-1.6612-.2287-2.079-.6746Zm2.8434-.7274c.1484-.2811.216-.589.1971-.8975v-3.7132c.019-.3025-.0475-.6045-.1937-.8799-.0832-.1062-.1994-.1899-.3351-.2418a.9056.9056 0 0 0-.4327-.0515.9166.9166 0 0 0-.4338.0521c-.1362.0518-.253.1353-.3373.2412-.1494.2746-.2171.577-.197.8799v3.7308c-.0207.3086.047.6169.197.8975.0956.0947.2137.1705.3461.2224.1324.052.2762.0789.4217.0789.1454 0 .2892-.0269.4216-.0789a1.0195 1.0195 0 0 0 .3461-.2224v-.0176ZM67.0035 20.0106h1.7666l1.3283 5.5956 1.3589-5.5956h1.719l.1733 8.0767H72.079l-.1359-5.6133-1.3113 5.6133h-1.0192l-1.3589-5.6338-.1257 5.6338h-1.2841l.1596-8.0767ZM75.3302 20.0106h2.7517c1.5854 0 2.378.7644 2.378 2.2933 0 1.4645-.8345 2.1957-2.5037 2.1937h-.9376v3.5897H75.32l.0102-8.0767Zm2.3509 3.4518c.1678.0184.3382.0051.4995-.039a1.224 1.224 0 0 0 .4347-.2162c.1948-.2728.2807-.5931.2446-.912a2.5254 2.5254 0 0 0-.0816-.7332.5935.5935 0 0 0-.125-.2216.7015.7015 0 0 0-.2147-.1626 1.7572 1.7572 0 0 0-.7575-.1291h-.6591v2.4137h.6591ZM82.9094 20.0106h1.8243l1.8718 8.0767h-1.583l-.3703-1.8623h-1.6273l-.3805 1.8623h-1.6068l1.8718-8.0767Zm1.5593 5.2789-.6353-3.3903-.6352 3.3903h1.2705ZM88.1173 20.0106h1.189l2.2762 4.6073v-4.6073h1.4098v8.0767H91.861l-2.2897-4.8097v4.8097h-1.4574l.0034-8.0767ZM96.2945 25.0077l-1.8923-4.9858h1.5933l1.1551 3.2026 1.0837-3.2026h1.5593l-1.8685 4.9858v3.0795h-1.6306v-3.0795ZM56.0477 31.6185v.4224h-1.386v3.2819h-.581v-3.2819h-1.3928v-.4224h3.3598ZM60.3927 35.3231h-.4485a.1991.1991 0 0 1-.1257-.0352.1937.1937 0 0 1-.0747-.085l-.4009-.8799h-1.9228l-.4009.8799a.2424.2424 0 0 1-.0612.0997.2071.2071 0 0 1-.1256.0352h-.4485l1.6986-3.7041h.5912l1.719 3.6894Zm-2.813-1.3755h1.6036l-.6795-1.5074a2.6989 2.6989 0 0 1-.1257-.349c-.0238.0704-.0442.1378-.0645.1965l-.0612.1554-.6727 1.5045ZM63.3211 34.9593c.1064.0048.213.0048.3193 0a1.9172 1.9172 0 0 0 .2718-.044 2.084 2.084 0 0 0 .2446-.0675c.0748-.0264.1495-.0587.2276-.0909v-.833h-.6794a.1395.1395 0 0 1-.0494-.0065.1246.1246 0 0 1-.0423-.0229.0864.0864 0 0 1-.0259-.0304.074.074 0 0 1-.0081-.037v-.2846h1.3181v1.4197a2.506 2.506 0 0 1-.7168.3021 3.0556 3.0556 0 0 1-.4247.0763 5.1605 5.1605 0 0 1-.4959.0235 2.5935 2.5935 0 0 1-.8562-.1379c-.2543-.0883-.4854-.22-.6794-.3872-.1891-.1689-.338-.3682-.4382-.5866a1.8513 1.8513 0 0 1-.1563-.7685 1.9201 1.9201 0 0 1 .1529-.7744c.0977-.2195.2469-.4192.4382-.5866.1939-.1667.4251-.2974.6795-.3843a2.851 2.851 0 0 1 .9104-.1378 3.4149 3.4149 0 0 1 .4722.0322 2.333 2.333 0 0 1 .4043.0939c.1188.0385.2327.0877.3397.1466.1041.0579.203.1227.2956.1936l-.1631.2288a.1428.1428 0 0 1-.0551.0509.1717.1717 0 0 1-.0774.0195.2223.2223 0 0 1-.1053-.0293 2.1135 2.1135 0 0 1-.1665-.088 1.5038 1.5038 0 0 0-.2276-.0997 2.1267 2.1267 0 0 0-.3125-.0822 2.6144 2.6144 0 0 0-.4315-.0322 2.009 2.009 0 0 0-.6556.1026c-.1891.0655-.3595.1656-.4994.2934-.1408.1331-.2484.2899-.316.4605a1.732 1.732 0 0 0 0 1.2348c.0744.1743.1901.3331.3398.4664.1393.1271.3084.2271.496.2933.216.0641.4449.089.6726.0734ZM68.7362 34.9005h1.8549v.4223h-2.4222v-3.7043h.5809l-.0136 3.282ZM72.5208 35.3228h-.581v-3.7043h.581v3.7043ZM74.6814 31.6361a.279.279 0 0 1 .0883.0675l2.4833 2.7923a.8812.8812 0 0 1 0-.132V31.6039h.5062v3.7192h-.2921a.275.275 0 0 1-.1257-.0206.3276.3276 0 0 1-.0918-.0704l-2.4799-2.7893v2.8803h-.4858v-3.7046h.3024a.2678.2678 0 0 1 .0951.0176ZM82.0364 31.6185v.4077h-2.0587v1.2231h1.668v.393h-1.668v1.2641h2.0587v.4077h-2.6566v-3.6956h2.6566ZM21.1617 8.7424l25.7951 6.3233v22.158l-25.7951-6.3204V8.7424Zm-1.6544-1.8888v25.1261l29.1006 7.1357V13.9923L19.5073 6.8536Z"/>
  <path fill="#AFB1B8" d="M35.1039 50.7791 6 43.6375V18.514l29.1039 7.1388v25.1263Z"/>
  <path fill="#AFB1B8" d="m19.9897 8.4579 25.4587 6.244-10.8269 9.3499-25.4621-6.2469 10.8303-9.347Zm-.4824-1.6043L6 18.5146l29.1039 7.1385 13.5039-11.6609-29.1005-7.1386ZM36.7414 49.3657l11.8664-10.2472-11.8664-2.9123v13.1595Z"/>
</svg>
