<svg xmlns="http://www.w3.org/2000/svg" width="106" height="53" fill="none">
  <path fill="#AFB1B8" d="M36.4063 49.1885a.1333.1333 0 0 1 .0461.0092.122.122 0 0 1 .0384.0239l.2181.2085c-.1693.1688-.3785.3037-.6134.3957a2.3888 2.3888 0 0 1-.8698.1421 2.3143 2.3143 0 0 1-.8179-.1326c-.2339-.085-.444-.2127-.6162-.3744-.1757-.1677-.3111-.3642-.3981-.5781a1.9255 1.9255 0 0 1-.139-.7415 1.7994 1.7994 0 0 1 .1499-.744c.0953-.2152.2389-.4117.4226-.5781.1862-.1631.4089-.2913.6544-.3767a2.5675 2.5675 0 0 1 .8425-.1327 2.2699 2.2699 0 0 1 .7825.1209 2.112 2.112 0 0 1 .5862.334l-.1827.2227a.1755.1755 0 0 1-.0464.0403.1244.1244 0 0 1-.0736.0166.1769.1769 0 0 1-.079-.0237l-.0982-.0592-.1363-.0758a1.5551 1.5551 0 0 0-.1827-.0735 1.9222 1.9222 0 0 0-.2481-.0592 1.9025 1.9025 0 0 0-.3245-.0237 1.7613 1.7613 0 0 0-.6052.0995c-.1792.0629-.3409.1582-.4744.2796-.136.129-.2408.2805-.3081.4454a1.4975 1.4975 0 0 0-.1118.5876 1.5277 1.5277 0 0 0 .1118.597c.0665.1635.1693.314.3026.4431.1249.1203.2797.2142.4526.2748.178.0641.369.0963.5617.0948a2.3839 2.3839 0 0 0 .3326-.019 1.3163 1.3163 0 0 0 .5044-.1587 1.6673 1.6673 0 0 0 .2154-.1469.17.17 0 0 1 .1036-.0379ZM42.7044 48.1408a1.8088 1.8088 0 0 1-.1472.7368c-.0888.2138-.2288.4087-.4107.5721-.1819.1633-.4015.2913-.6444.3755a2.654 2.654 0 0 1-1.6577 0c-.2414-.0855-.4596-.2138-.6407-.3766-.1818-.1664-.3228-.363-.4144-.5781-.1964-.4772-.1964-.9987 0-1.4759.093-.2152.2338-.4124.4144-.5804.1827-.1578.4008-.2812.6407-.3625a2.6105 2.6105 0 0 1 1.6577 0c.2422.0855.4613.2138.6434.3767.1795.1647.3195.3588.4117.5709.101.2373.1509.4886.1472.7415Zm-.5725 0a1.5654 1.5654 0 0 0-.1036-.5922c-.0611-.1636-.1604-.3144-.2917-.443-.1279-.1217-.2853-.2172-.4608-.2796a1.9176 1.9176 0 0 0-1.2051 0c-.1755.0624-.3329.1579-.4608.2796-.1331.1279-.2335.2789-.2944.443a1.738 1.738 0 0 0 0 1.1845c.0615.1639.1618.3148.2944.443.128.121.2854.2157.4608.2772a1.9653 1.9653 0 0 0 1.2051 0c.1754-.0615.3328-.1562.4608-.2772.1307-.129.2299-.2797.2917-.443a1.5513 1.5513 0 0 0 .1036-.5923ZM47.0013 48.7617l.0573.1327c.0218-.0474.0409-.09.0627-.1327a1.201 1.201 0 0 1 .0709-.1302l1.3932-2.2006c.0273-.0379.0518-.0616.0791-.0687a.3761.3761 0 0 1 .1145-.0119h.4117v3.5792h-.4881v-2.743a.974.974 0 0 1 0-.1232l-1.4014 2.2314a.2027.2027 0 0 1-.082.0814.2447.2447 0 0 1-.1197.0299h-.0791a.2417.2417 0 0 1-.12-.0295.2007.2007 0 0 1-.0818-.0818l-1.4423-2.2456v2.8733h-.4716v-3.5721h.4117a.3768.3768 0 0 1 .1145.0119.1531.1531 0 0 1 .0763.0687l1.4232 2.2029a.7567.7567 0 0 1 .0709.1279ZM52.2443 48.5839v1.3407h-.5453v-3.5744h1.216a2.5988 2.5988 0 0 1 .6789.0782c.1765.0434.3402.1194.4799.2226.1211.0968.2145.2169.2726.3506.0644.1458.0959.301.0927.4572a1.0252 1.0252 0 0 1-.1008.4571c-.0656.1372-.1663.2595-.2945.3577a1.3915 1.3915 0 0 1-.4826.2369 2.3066 2.3066 0 0 1-.6571.0829l-.6598-.0095Zm0-.3837h.6598c.1434.0016.286-.0168.4226-.0545a.9224.9224 0 0 0 .3054-.154.6342.6342 0 0 0 .1854-.2368.686.686 0 0 0 .0654-.3009.6038.6038 0 0 0-.0547-.2912.6888.6888 0 0 0-.1906-.2441c-.2083-.1413-.47-.2097-.7335-.1919h-.6598v1.4734ZM59.5731 49.9294h-.4308a.205.205 0 0 1-.12-.0331.2241.2241 0 0 1-.0709-.083l-.3708-.8646h-1.8621l-.3845.8646a.1958.1958 0 0 1-.0681.0806.2042.2042 0 0 1-.1227.0355h-.4308l1.6359-3.5795h.5671l1.6577 3.5795Zm-2.6992-1.329h1.5377l-.6489-1.4569a2.3666 2.3666 0 0 1-.1227-.3364l-.0627.1871a1.6785 1.6785 0 0 1-.06.1516l-.6434 1.4546ZM61.9288 46.3665a.231.231 0 0 1 .0818.064l2.3856 2.6982V46.3499h.4881v3.5795h-.2727a.2638.2638 0 0 1-.1118-.0213.2968.2968 0 0 1-.0872-.0663l-2.3829-2.6959a.974.974 0 0 1 0 .1232v2.6603h-.4881v-3.5795h.289a.2605.2605 0 0 1 .0982.0166ZM68.9031 48.5058v1.4214h-.5453v-1.4214L66.85 46.3501h.4881a.1957.1957 0 0 1 .1172.0308.3116.3116 0 0 1 .0736.0805l.9434 1.3906c.0382.0592.0709.1137.0982.1658a1.439 1.439 0 0 1 .0681.1517l.0709-.154a1.2374 1.2374 0 0 1 .0927-.1635l.9297-1.4a.3765.3765 0 0 1 .0709-.0759.1833.1833 0 0 1 .1173-.0355h.4935l-1.5105 2.1652ZM46.7314 40.3431c.2372.0261.4772.0474.7198.0663 3.6789-1.4298 6.791-3.7701 8.9475-6.7282 2.1565-2.9582 3.2616-6.403 3.1772-9.9038l-4.0543-3.5226c.8244 3.7273.4388 7.5804-1.1136 11.1281-1.5525 3.5477-4.2104 6.6502-7.6766 8.9602Z"/>
  <path fill="#AFB1B8" d="m45.2837 40.1793.1091.0189c3.7038-2.3018 6.5277-5.5162 8.1065-9.2274 1.5787-3.7111 1.8396-7.7485.749-11.5899l-5.7746-5.0172c2.3357 4.124 3.2758 8.7394 2.7111 13.3094-.5647 4.5701-2.6111 8.9069-5.9011 12.5062ZM64.8679 27.9136c-.9811 3.8466-3.3638 7.3157-6.7944 9.8923-1.0019.7567-2.0826 1.4307-3.2281 2.0135 2.7935-.7133 5.3611-1.9746 7.5048-3.6864 2.1438-1.7118 3.8064-3.8286 4.8598-6.1869l-2.3421-2.0325Z"/>
  <path fill="#AFB1B8" d="M63.9491 27.3472 60.6146 24.45c-.0637 3.3031-1.1445 6.5311-3.13 9.3485-1.9855 2.8173-4.8032 5.1213-8.1603 6.6723h.0163a21.7448 21.7448 0 0 0 2.2385-.1161c3.1374-1.1126 5.9089-2.8827 8.0674-5.1524 2.1584-2.2697 3.6366-4.9683 4.3026-7.8551ZM45.7663 12.2479l-3.978-3.461c-3.5561 1.194-6.6145 3.293-8.7749 6.0222-2.1605 2.7292-3.3222 5.9615-3.3333 9.2738.0133 3.6601 1.4312 7.2118 4.0292 10.0929 2.598 2.8812 6.2278 4.9272 10.3148 5.8143 3.6484-3.8621 5.7845-8.6343 6.0978-13.6233.3133-4.989-1.2125-9.9348-4.3556-14.1189ZM73.1401 26.8144c-.0144-4.3425-2.0062-8.5036-5.5404-11.5742-3.5341-3.0706-8.3233-4.8012-13.3213-4.8137-2.3096-.0021-4.5995.3682-6.7535 1.0921l24.3556 21.1611c.8339-1.8706 1.261-3.8594 1.2596-5.8653Z"/>
</svg>
