<svg xmlns="http://www.w3.org/2000/svg" id="Capa_1" data-name="Capa 1" viewBox="0 0 603 600">
  <defs>
    <clipPath id="clippath">
      <path d="M0 123.59h106v52.83H0z" class="cls-10"/>
    </clipPath>
    <clipPath id="clippath-1">
      <path d="M100 123.59h106v52.83H100z" class="cls-10"/>
    </clipPath>
    <clipPath id="clippath-2">
      <path d="M400 123.59h106v52.83H400z" class="cls-10"/>
    </clipPath>
    <clipPath id="clippath-3">
      <path d="M118 15h70v70h-70z" class="cls-10"/>
    </clipPath>
    <clipPath id="clippath-4">
      <path d="M218 15h70v70h-70z" class="cls-10"/>
    </clipPath>
    <style>
      .cls-2{fill-rule:evenodd}.cls-2,.cls-3{fill:#afb1b8}.cls-4{fill:#2196f3}.cls-7{fill:#212121}.cls-8{font-family:icomoon,icomoon;font-size:20px}.cls-10{fill:none}.cls-12{fill:#757575}
    </style>
  </defs>
  <path d="M3 0h100v100H3zM3 100h100v100H3zM3 200h100v100H3zM103 200h100v100H103zM203 200h100v100H203zM303 200h100v100H303zM403 200h100v100H403zM503 200h100v100H503zM103 100h100v100H103zM203 100h100v100H203zM303 100h100v100H303zM403 100h100v100H403zM503 100h100v100H503zM103 0h100v100H103zM203 0h100v100H203zM303 0h100v100H303zM403 0h100v100H403zM503 0h100v100H503z" class="cls-10"/>
  <path d="m85.32 63.34-18.47-18.6 2.05-10.1c.53.21 1.09.31 1.66.32h.01c2.61.03 4.75-2.06 4.78-4.67.03-2.61-2.06-4.75-4.67-4.78-2.61-.03-4.75 2.06-4.78 4.67 0 .56.09 1.11.27 1.64l-10.85 1.32-17.69-17.79c-.22-.22-.51-.35-.82-.35-.31 0-.6.12-.82.34l-3.31 3.29c-.46.46-.46 1.19 0 1.65l1.78 1.81c-6.9 12.68-4.66 28.39 5.51 38.64.09.09.2.16.32.21-.07.39-.11.8-.11 1.2v13.53h-14c-3.22 0-5.83 2.61-5.83 5.83v2.33c0 .64.52 1.17 1.17 1.17h53.67c.64 0 1.17-.52 1.17-1.17V81.5c0-3.22-2.61-5.83-5.83-5.83h-14v-6c2.19.46 4.43.69 6.67.7 5.38 0 10.67-1.35 15.4-3.9l1.79 1.8c.22.22.51.35.82.35.31 0 .6-.12.82-.34l3.31-3.29c.46-.46.46-1.19 0-1.65Zm-16.39-34.7c.91-.91 2.39-.9 3.3 0 .91.91.9 2.39 0 3.3-.44.43-1.03.68-1.65.68-1.29 0-2.33-1.06-2.32-2.35 0-.62.25-1.21.69-1.64Zm-2.75 7.67-1.31 6.44-2.57-2.59 3.88-3.86Zm-1.33-1.97-4.2 4.18-3.25-3.27 7.45-.91Zm5.66 43.67c1.93 0 3.5 1.57 3.5 3.5v1.17H22.68v-1.17c0-1.93 1.57-3.5 3.5-3.5h44.33Zm-16.33-4.67v2.33H42.51v-2.33h11.67Zm-11.67-2.33v-8.87c0-2.83 2.62-5.13 5.83-5.13s5.83 2.3 5.83 5.13v8.87H42.5Zm14-3.71v-5.16c0-4.12-3.66-7.47-8.17-7.47-2.91-.04-5.63 1.44-7.18 3.91-8.88-9.35-10.88-23.29-4.98-34.75l40.69 40.92c-6.28 3.2-13.49 4.1-20.36 2.54Zm24.69-1.5-1.64-1.65-42.77-43.03-1.65-1.65 1.65-1.64 17.36 17.46s.01.02.02.02l28.69 28.86-1.66 1.65Z" class="cls-7"/>
  <path d="M48.35 59.33h-.01c-1.93 0-3.5 1.56-3.51 3.49 0 1.93 1.56 3.5 3.49 3.51h.01c1.93 0 3.5-1.56 3.51-3.49 0-1.93-1.56-3.5-3.49-3.51Zm.82 4.33c-.22.22-.52.34-.83.34-.64 0-1.16-.53-1.16-1.17 0-.31.13-.6.34-.82.22-.22.51-.34.82-.34.64 0 1.16.53 1.16 1.17 0 .31-.13.6-.34.82h.01ZM387.94 24.9c-.14-.42-.5-.73-.94-.79l-4.18-.61-1.87-3.79c-.39-.8-1.7-.8-2.09 0l-1.87 3.79-4.18.61c-.44.06-.8.37-.94.79-.14.42-.02.89.3 1.2l3.03 2.95-.71 4.16c-.07.44.1.88.46 1.14.36.26.84.3 1.23.09l3.74-1.97 3.74 1.97c.17.09.36.13.54.13.24 0 .48-.07.69-.22.36-.26.54-.7.46-1.14l-.71-4.16 3.03-2.95c.32-.31.43-.77.29-1.2Zm-5.39 2.9c-.27.27-.4.65-.33 1.03l.42 2.44-2.19-1.15c-.17-.09-.36-.13-.54-.13s-.37.04-.54.13l-2.19 1.15.42-2.44c.07-.38-.06-.76-.33-1.03l-1.77-1.73 2.45-.36c.38-.05.71-.29.88-.64l1.09-2.22 1.09 2.22c.17.34.5.58.88.64l2.45.36-1.77 1.73ZM375.17 59.89h-2.33v2.33h2.33v-2.33ZM375.17 64.56h-2.33v2.33h2.33v-2.33ZM377.5 62.23h-2.33v2.33h2.33v-2.33ZM372.83 62.23h-2.33v2.33h2.33v-2.33ZM367 72.73h-2.33v2.33H367v-2.33ZM367 77.39h-2.33v2.33H367v-2.33ZM369.33 75.06H367v2.33h2.33v-2.33ZM364.67 75.06h-2.33v2.33h2.33v-2.33ZM353 68.06h-2.33v2.33H353v-2.33ZM353 72.73h-2.33v2.33H353v-2.33ZM355.33 70.39H353v2.33h2.33v-2.33ZM350.67 70.39h-2.33v2.33h2.33v-2.33ZM330.83 28.39h-2.33v2.33h2.33v-2.33ZM330.83 33.06h-2.33v2.33h2.33v-2.33ZM333.17 30.73h-2.33v2.33h2.33v-2.33ZM328.5 30.73h-2.33v2.33h2.33v-2.33Z" class="cls-4"/>
  <path d="M372.06 45.97c-.63-.85-1.55-1.39-2.6-1.54-1.05-.15-2.09.13-2.93.77l-2.74 2.1-4.15 3.1-2.97-1.18c5.3-2.38 9-7.67 9-13.83 0-8.36-6.83-15.17-15.23-15.17s-15.23 6.8-15.23 15.17c0 3.03.91 5.85 2.45 8.22l-6.05-.05h-.01s-.03 0-.05.01c-.12 0-.23.03-.34.07-.03.01-.06.02-.08.03-.01 0-.03 0-.04.01l-7.07 3.49-4.14 1.99s-.09.05-.14.08c-1.65 1.1-2.21 3.26-1.31 5.02.48.94 1.3 1.63 2.31 1.94.39.12.79.18 1.18.18.63 0 1.26-.16 1.84-.46l3.04-1.61 4.95-2.56 2.97-.02-11.9 11.85-2.93 2.92c-.69.69-1.07 1.6-1.07 2.58s.38 1.89 1.07 2.58c.71.71 1.65 1.06 2.58 1.06s1.87-.35 2.58-1.06l2.87-2.86 3.81-2.84 1.97 1.96-3.85 3.84-2.93 2.92c-.69.69-1.07 1.6-1.07 2.58s.38 1.89 1.07 2.58c.71.71 1.65 1.06 2.58 1.06s1.87-.35 2.58-1.06l2.93-2.92 4.69-4.67 2.21-2.19s.03-.03.05-.04l11.3-12.38 7.59 1.08c.05 0 .11.01.16.01.14 0 .28-.03.41-.08.04-.01.07-.03.11-.05.04-.02.09-.03.13-.06l7.03-4.67s.04-.05.06-.06c.03-.02.06-.03.09-.06l2.78-2.61c1.45-1.36 1.65-3.58.46-5.17Zm-49.4 7.9c-.38.2-.81.24-1.22.11-.41-.13-.74-.41-.93-.78-.35-.69-.15-1.52.47-1.97l2.87-1.38.69 2.02.29.85-2.17 1.15Zm7.65-4-3.39 1.75-.56-1.63-.4-1.17 4.43-2.19-.09 3.25Zm33.03-14.48c0 2.01-.48 3.9-1.31 5.6l-9.15-4.15c-.1-1.25-.75-2.35-1.72-3.04l3.2-10.63c5.2 1.65 8.98 6.51 8.98 12.22Zm-25.79 0c0-7.08 5.78-12.83 12.89-12.83.55 0 1.09.05 1.63.11l-3.13 10.4s-.08-.01-.12-.01c-2.26 0-4.1 1.83-4.1 4.08s1.84 4.08 4.1 4.08c1.52 0 2.83-.84 3.54-2.07l8.45 3.84c-2.35 3.16-6.11 5.23-10.36 5.23-7.11 0-12.89-5.76-12.89-12.83Zm13.03 1.75c0 .96-.79 1.75-1.76 1.75s-1.76-.79-1.76-1.75.79-1.75 1.76-1.75 1.76.79 1.76 1.75Zm-27.19 32.87c-.52.51-1.35.51-1.87 0-.25-.25-.39-.58-.39-.93s.14-.68.39-.92l2.1-2.1 1.86 1.85-2.1 2.09Zm7.03 8.17c-.52.51-1.35.51-1.87 0-.25-.25-.39-.58-.39-.93s.14-.68.39-.92l2.11-2.1.88.88.98.98-2.1 2.09Zm7.62-7.59-3.86 3.85-.88-.88-.98-.98 3.86-3.84c.09-.09.14-.19.2-.3l.06-.09c.04-.09.04-.19.06-.28 0-.05.03-.1.03-.16 0-.08-.03-.15-.04-.23-.01-.07-.01-.14-.04-.21-.04-.11-.12-.21-.2-.3-.02-.03-.03-.06-.05-.08l-3.52-3.5s-.09-.05-.13-.08c-.06-.05-.12-.09-.19-.13-.07-.03-.13-.05-.2-.07-.07-.02-.15-.04-.23-.04-.07 0-.14 0-.21.01-.08 0-.15.02-.23.04-.07.02-.14.06-.21.1-.04.02-.09.03-.13.06l-3.88 2.9-1.97-1.96 5.25-5.22 9.54 9.38-2.03 2.01Zm14.92-15.35h-.1c-.09 0-.17 0-.25.02-.07.01-.13.02-.19.05-.07.03-.14.06-.21.1-.07.04-.12.08-.18.13l-.09.06-10.28 11.26-9.47-9.31 6.2-6.16c.46-.45.46-1.19 0-1.65-.23-.23-.53-.34-.83-.34s-4.85.03-4.85.03l.06-3.52 6.79.06c2.77 2.83 6.63 4.6 10.9 4.6.96 0 1.89-.1 2.8-.27.09.07.17.14.28.19l5.27 2.1.33 1.66.39 1.94-6.57-.93Zm8.84.39-.68-3.41 3.16-2.36.83 1.1 1.24 1.65-4.55 3.02Zm8.21-6.19-1.83 1.72-2.04-2.7 1.82-1.39c.34-.26.77-.37 1.19-.31.42.06.8.28 1.05.62.47.64.39 1.53-.19 2.07Z" class="cls-7"/>
  <path d="m347.75 55.57-4.69-4.67c-.45-.45-1.19-.45-1.65 0l-4.69 4.67c-.22.22-.34.52-.34.83s.12.61.34.83l4.69 4.67c.23.23.53.34.82.34s.6-.11.82-.34l4.69-4.67c.22-.22.34-.52.34-.83s-.12-.61-.34-.83Zm-5.51 3.85-3.03-3.02 3.03-3.02 3.03 3.02-3.03 3.02ZM355.55 26.09l-.56 2.27c.16.04 3.8.99 3.8 4.7h2.33c0-4.41-3.64-6.49-5.57-6.97ZM361.12 35.39h-2.33v2.33h2.33v-2.33Z" class="cls-7"/>
  <path d="m38 130.59 7.01 6.63H32v32.18h34v-12.31l7 6.63v-33.13H38Zm27.69 25.73-19.87-18.81h19.87v18.81Zm-6.17 8.38H37.38v-21.65h1.57v20.18h20.58v1.47Zm-16.91 8.99-.82 1.68-.82-1.68h-.69l1.19 2.25v1.31h.62v-1.31l1.19-2.25h-.68Zm1.03 3.55.29-.83h1.38l.29.83h.64l-1.35-3.55h-.55L43 177.24h.64Zm.98-2.8.52 1.47h-1.03l.52-1.47Zm3.26 1.39c-.09.14-.13.29-.13.45 0 .3.1.54.31.73.21.19.49.28.84.28s.65-.1.91-.29l.2.24h.69l-.52-.62c.21-.28.31-.64.31-1.08h-.52c0 .24-.05.46-.15.65l-.69-.81.24-.18c.17-.12.29-.25.37-.37.07-.13.11-.26.11-.41 0-.22-.08-.41-.25-.56-.16-.15-.38-.23-.63-.23-.29 0-.51.08-.68.24-.17.16-.25.38-.25.66 0 .11.03.23.08.35.06.12.15.27.29.44-.26.19-.44.35-.53.49Zm1.6.79c-.17.13-.36.2-.56.2-.18 0-.32-.05-.42-.15-.11-.1-.16-.24-.16-.4 0-.19.1-.36.29-.51l.08-.05.78.92Zm-.64-1.57c-.17-.21-.25-.38-.25-.52 0-.12.03-.22.1-.3.07-.08.16-.12.28-.12.11 0 .2.03.27.1s.1.14.1.24c0 .14-.05.25-.15.34l-.08.06-.27.19Zm5.79 1.93c.24-.21.38-.51.42-.89h-.62c-.03.25-.11.44-.23.54-.12.11-.3.16-.55.16-.27 0-.47-.1-.61-.3-.14-.2-.21-.49-.21-.88v-.31c0-.38.08-.67.22-.86.14-.2.35-.3.62-.3.23 0 .41.06.52.17.12.11.2.3.22.55h.62c-.04-.39-.18-.69-.42-.9-.24-.21-.56-.32-.95-.32-.29 0-.55.07-.77.21-.22.14-.39.34-.51.59s-.18.55-.18.89v.33c0 .33.07.61.18.86.12.25.28.44.5.57.22.13.47.2.75.2.41 0 .73-.11.97-.32Zm3.63-.5c.12-.26.18-.57.18-.92v-.2c0-.35-.06-.65-.19-.91-.12-.26-.3-.46-.52-.6-.22-.14-.48-.21-.77-.21s-.55.07-.77.21c-.22.14-.4.34-.52.61-.12.27-.18.57-.18.92v.2c0 .34.06.64.19.9.12.26.3.46.52.6.23.14.48.21.77.21s.55-.07.77-.21c.22-.14.4-.34.52-.61Zm-.66-2.01c.15.21.22.51.22.91v.19c0 .4-.07.7-.22.91-.15.21-.36.31-.63.31s-.48-.11-.63-.32c-.15-.21-.23-.52-.23-.91v-.21c0-.38.08-.68.23-.89.15-.21.36-.31.63-.31s.48.1.63.31Z" class="cls-2" style="clip-path:url(#clippath)"/>
  <g style="clip-path:url(#clippath-1)">
    <path d="M150.11 129.52h-.14c-.21-.01-.42-.02-.63-.02h-.46c-.4 0-.8.01-1.2.03h-.09c-3.64.21-7.21 1.12-10.52 2.68l-.43.21v22.14l1.01-.34c.89-.31 1.83-.58 2.81-.83 2.65-.68 5.36-1.04 8.1-1.08v2.91c-.36 0-.71.01-1.07.03h-.08c-2.1.12-4.19.44-6.23.96-2.58.65-5.08 1.62-7.42 2.89v-28.4c2.43-1.42 5.05-2.49 7.78-3.17 2.4-.62 4.86-.94 7.34-.95h.43c.51.01 1.01.04 1.48.07 1.23.09 2.46.28 3.66.58v2.86c-1.16-.27-2.35-.45-3.54-.53h-.07c-.25-.02-.49-.04-.72-.04Zm5.04 2.93c.63.05 1.29.07 1.96.07 2.6 0 5.19-.34 7.71-.99 2.58-.65 5.07-1.62 7.42-2.89v27.89c-2.43 1.42-5.06 2.48-7.79 3.17-2.4.62-4.86.93-7.34.94-1.88.02-3.74-.21-5.57-.66v-28.07c.43.1.87.19 1.32.27.74.12 1.52.22 2.28.27Zm14.19.22-1.01.34c-.93.31-1.87.59-2.81.84-2.75.71-5.57 1.07-8.41 1.08-.66 0-1.27-.02-1.85-.06l-.81-.05v22.78l.69.06c.64.06 1.31.08 1.97.08 2.23 0 4.46-.3 6.62-.86 1.78-.45 3.51-1.07 5.17-1.86l.43-.21v-22.15Z" class="cls-2"/>
    <path d="M135.74 168.8c-.15-.15-.32-.27-.51-.35-.19-.08-.4-.11-.61-.11-.22 0-.44.04-.65.12-.19.08-.36.19-.51.33-.14.14-.25.32-.33.51-.08.2-.12.41-.12.63v3.79c0 .27.04.53.15.78.09.19.22.37.38.51.15.13.33.22.52.27.18.05.38.08.57.08.21 0 .42-.04.61-.13.19-.08.36-.2.51-.35.14-.15.25-.32.33-.51.08-.19.12-.4.12-.61v-.42h-.99v.34c0 .12-.02.23-.06.34-.03.08-.08.15-.14.21-.06.05-.13.09-.21.11-.07.02-.14.03-.21.04-.09.01-.18 0-.26-.04-.08-.04-.15-.09-.21-.16-.09-.15-.14-.33-.13-.51v-3.54c0-.2.04-.39.12-.57.05-.08.12-.14.21-.18.09-.04.18-.06.28-.04.09 0 .17.01.25.05.08.04.14.09.2.16.11.15.17.33.16.51v.33h.98V170c0-.23-.04-.45-.12-.66-.07-.2-.19-.38-.33-.53ZM141.63 168.76c-.32-.27-.72-.41-1.13-.42-.2 0-.4.04-.59.11-.19.07-.37.17-.52.31-.16.15-.3.33-.38.53-.1.23-.15.48-.14.73v3.64c0 .26.04.51.14.75.09.2.22.37.38.51.15.14.33.25.52.32s.39.11.59.11c.2 0 .4-.04.59-.11.2-.07.38-.18.54-.32.16-.14.29-.32.37-.51.1-.23.15-.49.14-.75v-3.64c0-.25-.04-.5-.14-.73-.09-.2-.22-.38-.37-.53Zm-.46 4.91c0 .1 0 .19-.04.29-.03.09-.09.17-.16.24-.13.11-.3.17-.47.17s-.34-.06-.47-.17c-.07-.07-.12-.15-.16-.24-.03-.09-.05-.19-.04-.29v-3.64c0-.1 0-.19.04-.29.03-.09.09-.17.16-.24.13-.11.3-.17.47-.17s.34.06.47.17c.07.07.12.15.16.24.03.09.05.19.04.29v3.64ZM149.37 175.29v-6.89h-.95l-1.25 3.65h-.02l-1.26-3.65h-.94v6.89h.98v-4.19h.02l.96 2.96h.49l.97-2.96h.02v4.19h.98ZM154.96 168.88c-.15-.17-.34-.3-.56-.38-.23-.07-.47-.11-.71-.11h-1.46v6.89h.98v-2.69h.51c.31.01.61-.05.89-.19.22-.12.41-.31.54-.53.11-.18.19-.39.23-.6.04-.26.06-.52.05-.78 0-.33-.02-.66-.1-.98-.07-.24-.19-.46-.36-.63Zm-.51 2.1c0 .12-.04.25-.09.36-.06.11-.14.19-.25.24-.15.07-.3.09-.46.09h-.45v-2.34h.51c.15 0 .3.02.44.09.1.06.18.15.23.25.05.12.08.25.09.38v.46c0 .16.01.33 0 .47h-.01ZM159.61 168.4h-.8l-1.52 6.89h.98l.29-1.48h1.34l.29 1.48h.98l-1.56-6.89Zm-.91 4.47.48-2.5h.02l.48 2.5h-.98ZM165.95 172.55h-.02l-1.48-4.15h-.94v6.89h.98v-4.14h.02l1.5 4.14h.92v-6.89h-.98v4.15ZM171.95 168.4l-.79 2.74h-.02l-.79-2.74h-1.04l1.35 3.98v2.91h.98v-2.91l1.35-3.98h-1.04Z" class="cls-3"/>
  </g>
  <path d="M238 169.81h.05c.02 0 .03.01.04.02l.22.21c-.17.17-.38.3-.61.4-.28.1-.57.15-.87.14-.28 0-.56-.04-.82-.13-.23-.08-.44-.21-.62-.37-.18-.17-.31-.36-.4-.58-.1-.24-.14-.49-.14-.74s.05-.51.15-.74c.1-.22.24-.41.42-.58.19-.16.41-.29.65-.38.27-.09.55-.14.84-.13.27 0 .53.04.78.12.22.08.41.19.59.33l-.18.22s-.03.03-.05.04c-.02.01-.05.02-.07.02-.03 0-.06 0-.08-.02l-.1-.06-.14-.08c-.06-.03-.12-.05-.18-.07-.08-.03-.16-.04-.25-.06-.11-.02-.22-.03-.32-.02-.21 0-.41.03-.61.1-.18.06-.34.16-.47.28-.14.13-.24.28-.31.45-.08.19-.11.39-.11.59 0 .2.03.41.11.6.07.16.17.31.3.44.12.12.28.21.45.27.18.06.37.1.56.09.11 0 .22 0 .33-.02.18-.02.35-.07.5-.16.08-.04.15-.09.22-.15.03-.02.06-.04.1-.04ZM244.29 168.76c0 .25-.05.5-.15.74-.09.21-.23.41-.41.57-.18.16-.4.29-.64.38-.53.18-1.12.18-1.66 0-.24-.09-.46-.21-.64-.38s-.32-.36-.41-.58c-.2-.48-.2-1 0-1.48.09-.22.23-.41.41-.58.18-.16.4-.28.64-.36.53-.18 1.12-.18 1.66 0 .24.09.46.21.64.38.18.16.32.36.41.57.1.24.15.49.15.74Zm-.57 0c0-.2-.03-.4-.1-.59-.06-.16-.16-.31-.29-.44-.13-.12-.29-.22-.46-.28-.39-.13-.82-.13-1.21 0-.18.06-.33.16-.46.28-.13.13-.23.28-.29.44-.14.39-.14.8 0 1.18.06.16.16.31.29.44.13.12.29.22.46.28.39.13.82.13 1.21 0 .18-.06.33-.16.46-.28.13-.13.23-.28.29-.44.07-.19.11-.39.1-.59ZM248.59 169.38l.06.13s.04-.09.06-.13c.02-.04.04-.09.07-.13l1.39-2.2s.05-.06.08-.07c.04 0 .08-.01.11-.01h.41v3.58h-.49V167.69l-1.4 2.23s-.05.06-.08.08c-.04.02-.08.03-.12.03h-.08s-.08 0-.12-.03c-.04-.02-.06-.05-.08-.08l-1.44-2.25v2.87h-.47v-3.57h.41s.08 0 .11.01.06.04.08.07l1.42 2.2s.05.08.07.13ZM253.83 169.21v1.34h-.55v-3.57h1.22c.23 0 .46.02.68.08.18.04.34.12.48.22.12.1.21.22.27.35.06.15.1.3.09.46 0 .16-.03.31-.1.46-.07.14-.17.26-.29.36-.14.11-.3.19-.48.24-.21.06-.43.09-.66.08h-.66Zm0-.39h.66c.14 0 .29-.02.42-.05.11-.03.22-.09.31-.15.08-.07.15-.15.19-.24.04-.1.07-.2.07-.3 0-.1-.01-.2-.05-.29-.04-.09-.11-.18-.19-.24-.21-.14-.47-.21-.73-.19h-.66v1.47ZM261.16 170.55h-.43s-.09-.01-.12-.03c-.03-.02-.06-.05-.07-.08l-.37-.86h-1.86l-.38.86s-.04.06-.07.08c-.03.02-.08.04-.12.04h-.43l1.64-3.58h.57l1.66 3.58Zm-2.7-1.33H260l-.65-1.46c-.05-.11-.09-.22-.12-.34l-.06.19c-.02.06-.04.11-.06.15l-.64 1.45ZM263.52 166.99s.06.04.08.06l2.39 2.7v-2.78h.49v3.58h-.27s-.08 0-.11-.02-.06-.04-.09-.07l-2.38-2.7V170.54h-.49v-3.58h.29s.07 0 .1.02ZM270.49 169.13v1.42h-.55v-1.42l-1.51-2.16h.49s.08 0 .12.03c.03.02.05.05.07.08l.94 1.39c.04.06.07.11.1.17.03.05.05.1.07.15l.07-.15c.03-.06.06-.11.09-.16l.93-1.4s.04-.05.07-.08c.03-.02.07-.04.12-.04h.49l-1.51 2.17ZM248.32 160.97c.24.03.48.05.72.07 3.68-1.43 6.79-3.77 8.95-6.73 2.16-2.96 3.26-6.4 3.18-9.9l-4.05-3.52c.82 3.73.44 7.58-1.11 11.13-1.55 3.55-4.21 6.65-7.68 8.96Z" class="cls-3"/>
  <path d="m246.87 160.8.11.02c3.7-2.3 6.53-5.52 8.11-9.23 1.58-3.71 1.84-7.75.75-11.59l-5.77-5.02c2.34 4.12 3.28 8.74 2.71 13.31-.56 4.57-2.61 8.91-5.9 12.51ZM266.46 148.54c-.98 3.85-3.36 7.32-6.79 9.89-1 .76-2.08 1.43-3.23 2.01 2.79-.71 5.36-1.97 7.5-3.69 2.14-1.71 3.81-3.83 4.86-6.19l-2.34-2.03Z" class="cls-3"/>
  <path d="m265.54 147.97-3.33-2.9c-.06 3.3-1.14 6.53-3.13 9.35-1.99 2.82-4.8 5.12-8.16 6.67h.02c.75 0 1.5-.04 2.24-.12 3.14-1.11 5.91-2.88 8.07-5.15 2.16-2.27 3.64-4.97 4.3-7.86ZM247.36 132.87l-3.98-3.46c-3.56 1.19-6.61 3.29-8.77 6.02-2.16 2.73-3.32 5.96-3.33 9.27.01 3.66 1.43 7.21 4.03 10.09 2.6 2.88 6.23 4.93 10.31 5.81 3.65-3.86 5.78-8.63 6.1-13.62.31-4.99-1.21-9.93-4.36-14.12ZM274.73 147.44c-.01-4.34-2.01-8.5-5.54-11.57-3.53-3.07-8.32-4.8-13.32-4.81-2.31 0-4.6.37-6.75 1.09l24.36 21.16c.83-1.87 1.26-3.86 1.26-5.87ZM331.77 142.09c-2.4 0-4.34 1.73-4.34 3.86s1.94 3.86 4.34 3.86 4.34-1.73 4.34-3.86-1.94-3.86-4.34-3.86ZM363.82 140.86c0-2.96-1.33-5.8-3.69-7.89-2.35-2.09-5.55-3.27-8.88-3.28-3.33 0-6.53 1.18-8.88 3.28-2.36 2.09-3.68 4.93-3.69 7.89v16.32s25.13-2.49 25.14-16.32ZM318.62 162.54c0 2.06.93 4.03 2.57 5.49s3.86 2.28 6.18 2.28 4.54-.83 6.18-2.28c1.64-1.46 2.56-3.43 2.57-5.49v-11.36s-17.49 1.73-17.49 11.36Zm8.74 2.03c-.45 0-.9-.12-1.27-.34-.38-.22-.67-.54-.84-.91-.17-.37-.22-.78-.13-1.18.09-.39.31-.76.63-1.04s.73-.48 1.17-.56c.44-.08.9-.04 1.32.12.42.15.78.41 1.03.75.25.33.39.73.39 1.13 0 .27-.06.53-.17.78-.11.25-.28.47-.5.66-.21.19-.47.34-.74.44-.28.1-.58.16-.88.16ZM343.35 160.93v4.27h-.88v-4.27h.88Zm1.7 1.82v.69h-1.94v-.69h1.94Zm.21-1.82v.69h-2.14v-.69h2.14Zm4.01 2.03v.2c0 .32-.04.62-.13.87-.09.26-.21.48-.37.66-.16.18-.35.32-.57.41-.22.1-.47.14-.74.14s-.51-.05-.74-.14c-.22-.1-.41-.23-.57-.41-.16-.18-.29-.4-.38-.66-.09-.26-.13-.55-.13-.87v-.2c0-.33.04-.62.13-.87.09-.26.21-.48.37-.66.16-.18.35-.32.57-.42.22-.1.47-.14.74-.14s.51.05.74.14c.22.1.41.23.57.42.16.18.29.4.38.66.09.26.13.55.13.87Zm-.89.2v-.21c0-.23-.02-.43-.06-.6-.04-.17-.1-.32-.18-.43-.08-.12-.18-.21-.29-.26-.12-.06-.25-.09-.4-.09s-.28.03-.4.09c-.11.06-.21.15-.29.26-.08.12-.14.26-.18.43-.04.17-.06.37-.06.6v.21c0 .22.02.42.06.6.04.17.1.32.18.44.08.12.18.21.29.27.12.06.25.09.4.09s.28-.03.4-.09.21-.15.29-.27c.08-.12.14-.26.18-.44.04-.17.06-.37.06-.6Zm3.74.91c0-.08-.01-.14-.04-.21-.02-.06-.06-.12-.12-.17-.06-.05-.15-.1-.25-.16-.11-.05-.25-.1-.42-.16-.19-.06-.38-.13-.55-.21-.17-.08-.32-.17-.46-.27-.13-.11-.23-.23-.31-.37-.07-.14-.11-.3-.11-.48s.04-.34.12-.48c.08-.15.19-.27.33-.38.14-.11.31-.19.5-.24.19-.06.41-.08.64-.08.31 0 .59.06.82.17.23.11.42.27.54.47.13.2.2.42.2.68h-.87c0-.12-.03-.23-.08-.33s-.13-.17-.23-.23c-.1-.05-.23-.08-.39-.08s-.28.02-.38.07c-.1.04-.18.11-.23.18-.05.08-.08.16-.08.26 0 .07.02.14.05.2.04.06.09.11.16.16s.16.1.27.14c.11.04.23.09.37.13.23.07.44.15.61.24.18.09.33.19.45.3.12.11.21.23.27.37.06.14.09.3.09.47 0 .19-.04.35-.11.5-.07.15-.18.27-.31.37-.14.1-.3.18-.49.23-.19.05-.4.08-.64.08-.21 0-.42-.03-.62-.08-.21-.06-.39-.14-.56-.25-.17-.11-.3-.26-.4-.43-.1-.18-.15-.38-.15-.62h.88c0 .13.02.25.06.34s.1.17.17.22c.08.06.17.1.27.12.11.03.22.04.35.04.15 0 .28-.02.38-.06.1-.04.17-.1.22-.18.05-.08.07-.16.07-.26Zm3.38-3.15v4.27h-.88v-4.27h.88Zm1.31 0v.69h-3.48v-.69h3.48Zm3.36 3.58v.69h-2.27v-.69h2.27Zm-1.98-3.58v4.27h-.88v-4.27h.88Zm1.69 1.74v.67h-1.97v-.67h1.97Zm.29-1.74v.69h-2.27v-.69h2.27Zm.52 0h1.59c.33 0 .61.05.84.15.24.1.42.24.54.43.13.19.19.43.19.71 0 .23-.04.42-.12.59-.08.16-.18.3-.33.41-.14.11-.3.19-.49.26l-.28.15h-1.38v-.69h1.02c.15 0 .28-.03.38-.08.1-.05.18-.13.23-.23.05-.1.08-.21.08-.34 0-.14-.03-.25-.08-.35-.05-.1-.13-.18-.23-.23s-.23-.08-.39-.08h-.71v3.58h-.88v-4.27Zm2.38 4.27-.97-1.9h.93l.98 1.86v.04h-.94Zm4.61-1.52h-1.09v-.69h1.09c.17 0 .3-.03.41-.08.11-.06.18-.13.23-.23.05-.1.07-.21.07-.34s-.02-.25-.07-.35c-.05-.11-.13-.2-.23-.26-.11-.07-.24-.1-.41-.1h-.78v3.58h-.88v-4.27h1.66c.33 0 .62.06.86.18s.42.28.55.5c.13.21.19.45.19.72s-.06.51-.19.71c-.13.2-.31.36-.55.47-.24.11-.52.16-.86.16Zm5.07.83v.69h-2.27v-.69h2.27Zm-1.98-3.58v4.27h-.88v-4.27h.88Zm1.69 1.74v.67h-1.97v-.67h1.97Zm.29-1.74v.69h-2.27v-.69h2.27Zm2.48 0v4.27h-.88v-4.27h.88Zm1.31 0v.69h-3.48v-.69h3.48Zm3.36 3.58v.69h-2.27v-.69h2.27Zm-1.98-3.58v4.27h-.88v-4.27h.88Zm1.69 1.74v.67h-1.97v-.67h1.97Zm.29-1.74v.69h-2.27v-.69h2.27Zm.52 0h1.59c.33 0 .61.05.84.15.24.1.42.24.54.43.13.19.19.43.19.71 0 .23-.04.42-.12.59-.08.16-.18.3-.33.41-.14.11-.3.19-.49.26l-.28.15h-1.38v-.69H382c.15 0 .28-.03.38-.08.1-.05.18-.13.23-.23.05-.1.08-.21.08-.34 0-.14-.03-.25-.08-.35a.512.512 0 0 0-.23-.23c-.1-.05-.23-.08-.39-.08h-.71v3.58h-.88v-4.27Zm2.38 4.27-.97-1.9h.93l.98 1.86v.04h-.94Zm3.68-1.12c0-.08-.01-.14-.04-.21-.02-.06-.06-.12-.12-.17-.06-.05-.15-.1-.25-.16-.11-.05-.25-.1-.42-.16-.19-.06-.38-.13-.55-.21-.17-.08-.32-.17-.46-.27-.13-.11-.23-.23-.31-.37-.07-.14-.11-.3-.11-.48s.04-.34.12-.48c.08-.15.19-.27.33-.38.14-.11.31-.19.5-.24.19-.06.41-.08.64-.08.31 0 .59.06.82.17.23.11.42.27.54.47.13.2.2.42.2.68h-.87c0-.12-.03-.23-.08-.33s-.13-.17-.23-.23c-.1-.05-.23-.08-.39-.08s-.28.02-.38.07c-.1.04-.18.11-.23.18-.05.08-.08.16-.08.26 0 .07.02.14.05.2.04.06.09.11.16.16s.16.1.27.14c.11.04.23.09.37.13.23.07.44.15.61.24.18.09.33.19.45.3.12.11.21.23.27.37.06.14.09.3.09.47 0 .19-.04.35-.11.5-.07.15-.18.27-.31.37-.14.1-.3.18-.49.23-.19.05-.4.08-.64.08-.21 0-.42-.03-.62-.08-.21-.06-.39-.14-.56-.25-.17-.11-.3-.26-.4-.43-.1-.18-.15-.38-.15-.62h.88c0 .13.02.25.06.34s.1.17.17.22c.08.06.17.1.27.12.11.03.22.04.35.04.15 0 .28-.02.38-.06.1-.04.17-.1.22-.18.05-.08.07-.16.07-.26Z" class="cls-3"/>
  <g style="clip-path:url(#clippath-2)">
    <path d="M426.76 168.32c.24.28.37.62.37.98.01.23-.03.46-.13.68-.1.21-.25.4-.44.56-.47.33-1.06.49-1.65.45h-2.9v-6.19h2.84c.56-.03 1.12.11 1.58.41.18.14.33.32.42.52.1.2.14.42.13.64.02.34-.1.68-.33.95-.22.25-.53.42-.87.48.39.06.73.25.98.53Zm-3.41-.93h1.22c.28.02.55-.05.77-.21.09-.08.16-.17.21-.27.05-.1.06-.22.05-.33 0-.11-.01-.22-.05-.33-.04-.1-.11-.2-.2-.28-.23-.16-.51-.23-.8-.21h-1.2v1.62Zm2.11 2.37c.1-.08.17-.17.22-.28.05-.11.07-.23.06-.35 0-.12-.02-.24-.07-.35-.05-.11-.13-.21-.23-.29-.24-.16-.53-.24-.83-.22h-1.28v1.7h1.29c.29.02.58-.06.82-.21ZM432.57 170.98l-1.58-2.42h-.59v2.42h-1.36v-6.19h2.58c.65-.04 1.29.15 1.79.53.36.34.58.78.61 1.25.04.47-.11.94-.42 1.31-.32.33-.75.56-1.23.63l1.68 2.47h-1.48Zm-2.18-3.26h1.11c.77 0 1.16-.31 1.16-.94 0-.13-.01-.26-.06-.38-.05-.12-.12-.23-.22-.32-.24-.19-.56-.28-.88-.25h-1.13v1.88ZM440.01 169.74h-2.71l-.48 1.25h-1.43l2.49-6.12h1.54l2.48 6.12h-1.43l-.47-1.25Zm-.36-.94-.99-2.61-.99 2.61h1.98ZM449.32 170.98h-1.35l-3.03-4.21v4.21h-1.35v-6.19h1.35l3.03 4.23v-4.23h1.35v6.19ZM457.03 169.5c-.28.47-.71.85-1.22 1.09-.59.27-1.24.41-1.9.39h-2.4v-6.19h2.4c.66-.02 1.31.12 1.9.38.52.24.94.62 1.22 1.08.28.5.42 1.06.42 1.62s-.14 1.12-.42 1.62Zm-1.55-.15c.39-.41.6-.94.6-1.48s-.21-1.07-.6-1.48c-.47-.37-1.07-.56-1.69-.53h-.94v4.01h.94c.62.04 1.23-.15 1.69-.53ZM440.86 130.35s17.44 6.03 17.07 14.75v14.75s-17.43-6.03-17.06-14.75v-14.75ZM473.46 156.4c3.29-2.08 7.1-3.36 11.08-3.74v-4.62c-4.58 1.62-8.47 4.55-11.08 8.36Z" class="cls-3"/>
    <path d="M471.48 157.8c2.7-4.97 7.37-8.8 13.06-10.72v-13.31s-24.83 8.59-24.31 21.01v21.01s1.11-.38 2.85-1.1c0-.67 0-1.35.08-2.03.51-5.77 3.51-11.11 8.32-14.86Z" class="cls-3"/>
    <path d="M469.12 165.6c.13-1.46.42-2.9.87-4.3-3 3.24-4.82 7.25-5.19 11.48-.04.4-.06.8-.07 1.21 1.41-.62 3.05-1.39 4.78-2.3-.44-2-.57-4.05-.39-6.08ZM470.11 165.68c-.17 1.84-.06 3.69.31 5.51 6.79-3.72 14.41-9.46 14.12-16.4v-.6c-4.85.5-9.38 2.44-12.91 5.52-.83 1.91-1.34 3.93-1.51 5.98Z" class="cls-3"/>
  </g>
  <path d="M553.53 148.68c-.44-.59-.66-1.29-.6-1.99v-2.88c0-.88.2-1.56.6-2.01.4-.46 1.09-.69 2.07-.69.92 0 1.57.2 1.95.59.42.5.62 1.11.58 1.72v.68h-1.64v-.69c0-.22-.01-.45-.05-.67-.02-.15-.11-.29-.23-.4a1.01 1.01 0 0 0-.59-.16c-.22-.01-.45.04-.63.16-.14.12-.24.27-.27.44-.05.24-.07.47-.06.71v3.5c-.03.34.05.68.21.98.08.1.19.19.33.24.13.05.28.07.42.06.21.01.42-.04.58-.16.13-.11.22-.26.24-.43.04-.23.06-.47.05-.7v-.71h1.64v.65c.05.64-.15 1.28-.57 1.81-.38.43-1.02.64-1.96.64s-1.66-.23-2.06-.7ZM560.36 148.71c-.41-.45-.62-1.1-.62-1.97v-3.03c0-.86.21-1.5.62-1.94.41-.44 1.11-.66 2.08-.66.96 0 1.65.22 2.07.66.41.44.63 1.09.63 1.94v3.03c0 .86-.21 1.51-.63 1.97-.42.45-1.11.68-2.06.68s-1.66-.23-2.08-.67Zm2.84-.73c.15-.28.22-.59.2-.9v-3.71c.02-.3-.05-.6-.19-.88-.08-.11-.2-.19-.34-.24-.14-.05-.29-.07-.43-.05-.15-.02-.3 0-.43.05s-.25.14-.34.24c-.15.27-.22.58-.2.88v3.73c-.02.31.05.62.2.9.1.09.21.17.35.22.13.05.28.08.42.08s.29-.03.42-.08.25-.13.35-.22v-.02ZM567.11 141.19h1.77l1.33 5.6 1.36-5.6h1.72l.17 8.08h-1.27l-.14-5.61-1.31 5.61h-1.02l-1.36-5.63-.13 5.63h-1.28l.16-8.08ZM575.43 141.19h2.75c1.59 0 2.38.76 2.38 2.29s-.83 2.2-2.5 2.19h-.94v3.59h-1.7v-8.08Zm2.36 3.45c.17.02.34 0 .5-.04.16-.04.31-.12.43-.22.19-.27.28-.59.24-.91 0-.25-.02-.49-.08-.73-.02-.08-.07-.16-.12-.22-.06-.07-.13-.12-.21-.16-.24-.1-.5-.14-.76-.13h-.66v2.41h.66ZM583.01 141.19h1.82l1.87 8.08h-1.58l-.37-1.86h-1.63l-.38 1.86h-1.61l1.87-8.08Zm1.56 5.28-.64-3.39-.64 3.39h1.27ZM588.22 141.19h1.19l2.28 4.61v-4.61h1.41v8.08h-1.13l-2.29-4.81v4.81h-1.46v-8.08ZM596.4 146.19l-1.89-4.99h1.59l1.16 3.2 1.08-3.2h1.56l-1.87 4.99v3.08h-1.63v-3.08ZM556.15 152.8v.42h-1.39v3.28h-.58v-3.28h-1.39v-.42h3.36ZM560.5 156.51h-.45s-.09-.01-.13-.04c-.03-.02-.06-.05-.07-.08l-.4-.88h-1.92l-.4.88s-.03.07-.06.1c-.04.02-.08.04-.13.04h-.45l1.7-3.7h.59l1.72 3.69Zm-2.81-1.38h1.6l-.68-1.51c-.05-.11-.09-.23-.13-.35-.02.07-.04.14-.06.2l-.06.16-.67 1.5ZM563.42 156.14h.32c.09 0 .18-.02.27-.04.08-.02.17-.04.24-.07.07-.03.15-.06.23-.09v-.83H563.75c-.02 0-.03-.01-.04-.02-.01 0-.02-.02-.03-.03v-.32H565v1.42c-.11.07-.22.13-.34.18-.12.05-.25.09-.38.13-.14.04-.28.06-.42.08-.16.02-.33.02-.5.02-.29 0-.58-.04-.86-.14-.25-.09-.49-.22-.68-.39-.19-.17-.34-.37-.44-.59-.11-.25-.16-.51-.16-.77s.05-.53.15-.77c.1-.22.25-.42.44-.59.19-.17.43-.3.68-.38.29-.09.6-.14.91-.14.16 0 .32.01.47.03.14.02.27.05.4.09.12.04.23.09.34.15.1.06.2.12.3.19l-.16.23s-.03.04-.06.05c-.02.01-.05.02-.08.02-.04 0-.07-.01-.11-.03-.05-.02-.11-.05-.17-.09-.07-.04-.15-.07-.23-.1-.1-.04-.21-.06-.31-.08-.14-.02-.29-.03-.43-.03-.22 0-.45.03-.66.1-.19.07-.36.17-.5.29-.14.13-.25.29-.32.46-.15.4-.15.83 0 1.23.07.17.19.33.34.47.14.13.31.23.5.29.22.06.44.09.67.07ZM568.84 156.08h1.85v.42h-2.42v-3.7h.58v3.28ZM572.62 156.51h-.58v-3.7h.58v3.7ZM574.78 152.82s.06.04.09.07l2.48 2.79V152.79h.51v3.72h-.29s-.09 0-.13-.02c-.04-.02-.07-.04-.09-.07l-2.48-2.79v2.88h-.49v-3.7h.3s.07 0 .1.02ZM582.14 152.8v.41h-2.06v1.22h1.67v.39h-1.67v1.26h2.06v.41h-2.66v-3.7h2.66ZM521.26 129.93l25.8 6.32v22.16l-25.8-6.32v-22.16Zm-1.65-1.89v25.13l29.1 7.14v-25.12l-29.1-7.14Z" class="cls-3"/>
  <path d="m535.21 171.96-29.1-7.14V139.7l29.1 7.14v25.13Z" class="cls-3"/>
  <path d="m520.09 129.64 25.46 6.24-10.83 9.35-25.46-6.25 10.83-9.35Zm-.48-1.6L506.1 139.7l29.1 7.14 13.5-11.66-29.1-7.14ZM536.84 170.55l11.87-10.25-11.87-2.91v13.16Z" class="cls-3"/>
  <g style="clip-path:url(#clippath-3)">
    <path d="M150.65 47.74h2.33v10.49h-2.33V47.74ZM159.98 52.4h2.33v5.83h-2.33V52.4ZM141.32 55.9h2.33v2.33h-2.33V55.9ZM134.32 54.73h2.33v3.5h-2.33v-3.5Z" class="cls-4"/>
    <path d="M121.5 76.89h55.97c1.93 0 3.5-1.57 3.5-3.5v-4.66c0-1.93-1.57-3.5-3.5-3.5h-1.17V36.15l6.62-6.27c1.54.76 3.4.3 4.4-1.09 1.01-1.39.87-3.3-.33-4.52-1.2-1.23-3.11-1.41-4.52-.43-1.41.98-1.91 2.83-1.19 4.38l-4.99 4.73v-2.69c0-1.93-1.57-3.5-3.5-3.5h-46.64c-1.93 0-3.5 1.57-3.5 3.5v34.98h-1.17c-1.93 0-3.5 1.57-3.5 3.5v4.66c0 1.93 1.57 3.5 3.5 3.5Zm62.97-51.31c.64 0 1.17.52 1.17 1.17s-.52 1.17-1.17 1.17-1.17-.52-1.17-1.17.52-1.17 1.17-1.17ZM125 30.24c0-.64.52-1.17 1.17-1.17h46.64c.64 0 1.17.52 1.17 1.17v4.9l-2.33 2.22v-4.78c0-.64-.52-1.17-1.17-1.17H128.5c-.64 0-1.17.52-1.17 1.17v29.15c0 .64.52 1.17 1.17 1.17h41.98c.64 0 1.17-.52 1.17-1.17V40.57l2.33-2.21v26.87h-48.97V30.24Zm10.49 15.16c-1.58 0-2.96 1.05-3.38 2.57-.42 1.52.23 3.13 1.59 3.94s3.08.6 4.22-.49l4.05 2.03c.47.24 1.04.13 1.39-.27l8.62-9.69 8.47 6.35c.45.34 1.09.3 1.5-.09l7.36-6.97v17.79h-39.65V33.75h39.65v5.82l-8.25 7.81-8.54-6.4c-.49-.36-1.17-.29-1.57.16l-8.73 9.83-3.27-1.63c.02-.14.04-.28.04-.42 0-1.93-1.57-3.5-3.5-3.5Zm1.17 3.5c0 .64-.52 1.17-1.17 1.17s-1.17-.52-1.17-1.17.52-1.17 1.17-1.17 1.17.52 1.17 1.17Zm7 18.66h11.66v1.17c0 .64-.52 1.17-1.17 1.17h-9.33c-.64 0-1.17-.52-1.17-1.17v-1.17Zm-23.32 1.17c0-.64.52-1.17 1.17-1.17h19.82v1.17c0 1.93 1.57 3.5 3.5 3.5h9.33c1.93 0 3.5-1.57 3.5-3.5v-1.17h19.82c.64 0 1.17.52 1.17 1.17v4.66c0 .64-.52 1.17-1.17 1.17h-55.97c-.64 0-1.17-.52-1.17-1.17v-4.66Z" class="cls-7"/>
  </g>
  <g style="clip-path:url(#clippath-4)">
    <path d="M286.46 48.47c0-18.49-15-33.48-33.49-33.47-18.49 0-33.48 15-33.47 33.49 0 14.56 9.42 27.46 23.3 31.89.13.04.27.06.41.06.26 0 .52-.07.75-.21.3-.17.52-.45.62-.78l8.45-26.8c2.31-.01 4.18-1.9 4.16-4.21-.01-2.31-1.89-4.18-4.21-4.16-.62 0-1.24.15-1.79.42l-11.17-11.17c-.55-.54-1.44-.52-1.97.03-.52.54-.52 1.4 0 1.94l11.16 11.18c-.86 1.75-.37 3.86 1.17 5.05l-8.06 25.53c-15.92-5.86-24.07-23.52-18.21-39.44 5.86-15.92 23.52-24.07 39.44-18.21 15.92 5.86 24.07 23.52 18.21 39.44-2.87 7.78-8.75 14.07-16.32 17.44l-.87-4.1c-.16-.75-.9-1.24-1.65-1.08-.24.05-.46.16-.64.32l-8.39 7.49c-.58.51-.63 1.39-.11 1.97.17.19.38.33.62.4l10.72 3.42c.73.24 1.52-.17 1.75-.9.07-.23.09-.48.04-.72l-.86-4.02c12.39-5.22 20.44-17.37 20.41-30.82Zm-33.48-1.39c.77 0 1.4.62 1.4 1.39s-.62 1.4-1.4 1.4-1.39-.62-1.39-1.4.62-1.39 1.39-1.39Zm4.59 32.51 4.78-4.26 1.32 6.21-6.1-1.95Z" class="cls-7"/>
    <path d="M251.59 21.97v2.79c0 .77.62 1.39 1.39 1.39s1.4-.62 1.4-1.39v-2.79c0-.77-.62-1.39-1.4-1.39s-1.39.62-1.39 1.39ZM226.48 47.08c-.77 0-1.39.62-1.39 1.4s.62 1.4 1.39 1.4h2.79c.77 0 1.39-.62 1.39-1.4s-.62-1.4-1.39-1.4h-2.79ZM279.49 49.87c.77 0 1.39-.62 1.39-1.4s-.62-1.4-1.39-1.4h-2.79c-.77 0-1.4.62-1.4 1.4s.62 1.4 1.4 1.4h2.79Z" class="cls-4"/>
  </g>
  <path d="M3 0h600v600H3z" class="cls-10"/>
  <path d="M466 38h-26c-1.65 0-3 1.35-3 3v18c0 1.65 1.35 3 3 3h26c1.65 0 3-1.35 3-3V41c0-1.65-1.35-3-3-3Zm0 2c.14 0 .26.03.38.08L453 51.68l-13.38-11.6c.12-.05.25-.08.38-.08h26Zm0 20h-26c-.55 0-1-.45-1-1V42.19l13.34 11.57c.19.16.42.24.66.24s.47-.08.66-.24L467 42.19V59c0 .55-.45 1-1 1ZM560 34h-14c-1.65 0-3 1.35-3 3v26c0 1.65 1.35 3 3 3h14c1.65 0 3-1.35 3-3V37c0-1.65-1.35-3-3-3Zm-14 2h14c.55 0 1 .45 1 1v21h-16V37c0-.55.45-1 1-1Zm14 28h-14c-.55 0-1-.45-1-1v-3h16v3c0 .55-.45 1-1 1Z" class="cls-12"/>
  <path d="M547.71 61.48c.39.36.39.96 0 1.32-.39.36-1.02.36-1.41 0-.39-.36-.39-.96 0-1.32.39-.36 1.02-.36 1.41 0Z" class="cls-12"/>
  <text class="cls-8" transform="translate(44.43 259.37)"><tspan x="0" y="0"></tspan></text>
  <text class="cls-8" transform="translate(143.71 259.37)"><tspan x="0" y="0"></tspan></text>
  <text class="cls-8" transform="translate(247.12 259.37)"><tspan x="0" y="0"></tspan></text>
  <text class="cls-8" transform="translate(344.43 259.37)"><tspan x="0" y="0"></tspan></text>
</svg>
